<svg width="19" height="19" viewBox="0 0 19 19" fill="none" xmlns="http://www.w3.org/2000/svg">
<path d="M13.8978 18.8102L14.8496 17.8583C14.9767 17.7315 15.04 17.5854 15.04 17.4202C15.04 17.2554 14.9767 17.1094 14.8496 16.9826L7.36753 9.5001L14.8494 2.01797C14.9765 1.89107 15.0398 1.74503 15.0398 1.58006C15.0398 1.41502 14.9765 1.26898 14.8494 1.14215L13.8976 0.190447C13.7707 0.0633491 13.6247 0 13.4596 0C13.2947 0 13.1487 0.0635492 13.0219 0.190447L4.14993 9.06219C4.02303 9.18902 3.95961 9.33513 3.95961 9.5001C3.95961 9.66508 4.02303 9.81091 4.14993 9.93768L13.0219 18.8102C13.1488 18.937 13.2948 19 13.4596 19C13.6247 19 13.7707 18.937 13.8978 18.8102Z" fill="#5653F3"/>
</svg>
