<svg width="43" height="19" viewBox="0 0 43 19" fill="none" xmlns="http://www.w3.org/2000/svg">
<path d="M1.72686 14.8621H4.64972C4.95829 16.7271 6.57784 18.1484 8.53015 18.1484C10.4825 18.1484 12.102 16.7271 12.4106 14.8621H30.225C30.5337 16.7271 32.1532 18.1484 34.1055 18.1484C36.0578 18.1484 37.6774 16.7271 37.986 14.8621H40.533C41.159 14.8621 41.7106 14.4143 41.8889 13.7612L41.9685 13.4697C42.008 13.3258 42.0269 13.1783 42.0269 13.0319C42.0269 12.6756 41.9136 12.3257 41.6989 12.0455C41.4877 11.7687 41.3714 11.4201 41.3714 11.0596V9.67011L41.2404 8.93734C41.0781 8.02756 40.6882 7.18444 40.1129 6.50063L37.1978 3.03438C37.0467 2.85502 36.9658 2.62257 36.9658 2.3848C36.9658 2.30397 36.9753 2.22313 36.9942 2.14348C37.147 1.49861 36.6668 0.883835 36.0579 0.944015L33.7315 1.17411L26.3229 0.871444C25.4827 0.837224 24.642 0.847254 23.8024 0.900944L18.5112 1.24138C17.9708 1.27501 17.4416 1.42132 16.9525 1.67325L11.2194 4.62561C10.8766 4.80202 10.5144 4.92711 10.1409 4.99732L4.69049 6.02982C3.78602 6.20092 3.0379 6.89122 2.73346 7.83463L2.34701 9.03527C2.21249 9.4524 1.98829 9.82823 1.6927 10.1309L1.41599 10.4141C1.28855 10.5451 1.19834 10.7121 1.15521 10.8967L0.808289 12.3841V13.8615C0.80823 14.4144 1.21946 14.8621 1.72686 14.8621ZM37.8662 7.45567L39.586 7.8171C39.7045 7.842 39.803 7.92342 39.8498 8.03499L40.3391 9.20165C40.3914 9.32662 40.3709 9.47028 40.2857 9.5756L40.1162 9.78505C40.0042 9.9234 39.8091 9.96181 39.653 9.8762L38.1798 9.06837C38.1234 9.0374 38.0759 8.99215 38.0425 8.9371L37.4761 8.00732C37.3085 7.73202 37.5507 7.38935 37.8662 7.45567ZM26.1853 9.30632H24.907C24.63 9.30632 24.4055 9.08183 24.4055 8.80482C24.4055 8.52788 24.63 8.30332 24.907 8.30332H26.1853C26.4623 8.30332 26.6868 8.52788 26.6868 8.80482C26.6868 9.08177 26.4623 9.30632 26.1853 9.30632ZM32.0057 15.7932C31.7992 15.5188 31.6458 15.2038 31.5597 14.8622C31.5361 14.7713 31.5178 14.6787 31.5042 14.5843C31.6134 14.6091 31.7348 14.6232 31.8635 14.6232C32.0511 14.6232 32.224 14.5937 32.3644 14.5436C32.3851 14.6539 32.4157 14.7607 32.4559 14.8622C32.5042 14.9873 32.5668 15.1053 32.6417 15.2144C32.5072 15.2787 32.3644 15.3796 32.2317 15.5124C32.1408 15.6026 32.0652 15.6987 32.0057 15.7932ZM33.7768 12.4739C33.532 12.5199 33.3048 12.616 33.106 12.7517C33.0423 12.6172 32.9414 12.4739 32.8087 12.3417C32.7178 12.2508 32.6222 12.1753 32.5278 12.1157C32.8741 11.8544 33.2871 11.6774 33.7361 11.6142C33.7113 11.7234 33.6972 11.8449 33.6972 11.9735C33.6972 12.1612 33.7273 12.334 33.7768 12.4739ZM32.6417 13.216C32.506 13.4143 32.4098 13.642 32.3644 13.8868C32.224 13.8373 32.0511 13.8072 31.8635 13.8072C31.7348 13.8072 31.6134 13.8214 31.5042 13.8461C31.5679 13.3971 31.7443 12.9841 32.0057 12.6378C32.0653 12.7322 32.1408 12.8278 32.2317 12.9187C32.3644 13.0515 32.5072 13.1524 32.6417 13.216ZM33.7362 16.8168C33.2872 16.7531 32.8742 16.5761 32.5279 16.3153C32.6223 16.2557 32.7178 16.1802 32.8087 16.0893C32.9415 15.9566 33.0424 15.8132 33.1061 15.6787C33.3049 15.8144 33.532 15.9105 33.7769 15.9566C33.7273 16.097 33.6972 16.2699 33.6972 16.4575C33.6972 16.5862 33.7113 16.7077 33.7362 16.8168ZM34.1055 14.9253C34.0016 14.9253 33.9025 14.9029 33.8134 14.8622C33.5668 14.7507 33.3951 14.5029 33.3951 14.2155C33.3951 13.8238 33.7136 13.5052 34.1055 13.5052C34.4972 13.5052 34.8158 13.8238 34.8158 14.2155C34.8158 14.5029 34.6441 14.7507 34.3975 14.8622C34.3084 14.9028 34.2093 14.9253 34.1055 14.9253ZM34.4742 16.8168C34.499 16.7076 34.5138 16.5861 34.5138 16.4575C34.5138 16.2699 34.4837 16.097 34.4335 15.9566C34.6789 15.9105 34.9061 15.8144 35.1049 15.6787C35.1686 15.8132 35.2695 15.9566 35.4023 16.0893C35.4931 16.1802 35.5887 16.2557 35.6832 16.3153C35.3369 16.5761 34.9239 16.7531 34.4742 16.8168ZM36.6513 14.8621C36.5652 15.2037 36.4112 15.5188 36.2053 15.7931C36.1457 15.6987 36.0702 15.6026 35.9793 15.5123C35.8466 15.3795 35.7032 15.2787 35.5693 15.2143C35.6442 15.1052 35.7067 14.9872 35.7551 14.8621C35.7952 14.7606 35.8259 14.6538 35.8466 14.5435C35.987 14.5937 36.1598 14.6232 36.3475 14.6232C36.4761 14.6232 36.5976 14.609 36.7068 14.5842C36.6932 14.6786 36.6749 14.7713 36.6513 14.8621ZM36.2053 12.6379C36.4661 12.9842 36.6431 13.3972 36.7068 13.8462C36.5976 13.8214 36.4761 13.8073 36.3475 13.8073C36.1598 13.8073 35.987 13.8373 35.8466 13.8869C35.8011 13.6421 35.705 13.4143 35.5693 13.2161C35.7032 13.1524 35.8466 13.0515 35.9793 12.9187C36.0702 12.8279 36.1457 12.7322 36.2053 12.6379ZM35.4023 12.3417C35.2695 12.4739 35.1686 12.6172 35.1049 12.7517C34.9061 12.616 34.6789 12.5199 34.4335 12.4739C34.4837 12.334 34.5138 12.1612 34.5138 11.9735C34.5138 11.8449 34.499 11.7234 34.4742 11.6142C34.9231 11.6774 35.3368 11.8544 35.6831 12.1157C35.5887 12.1753 35.4931 12.2508 35.4023 12.3417ZM29.1448 2.46297L33.6712 2.64788C33.6913 2.6487 33.7114 2.64911 33.7315 2.64911C33.7799 2.64911 33.8284 2.6467 33.8767 2.64192L34.5891 2.57141C34.6969 2.56073 34.7832 2.65926 34.7584 2.7647L34.4893 3.90835C34.2574 4.89418 33.4496 5.64018 32.4484 5.79293L30.3 6.0304C30.1933 6.0422 30.1078 5.9468 30.128 5.84149C30.1282 5.84078 30.1283 5.84001 30.1285 5.8393C30.2761 5.06629 30.1092 4.28536 29.6583 3.64026L29.0089 2.71118C28.9341 2.60416 29.0142 2.45766 29.1448 2.46297ZM11.866 5.95164C11.8754 5.9468 11.8849 5.94196 11.8944 5.93713L17.6277 2.98465C17.936 2.82582 18.264 2.73467 18.6027 2.7136L23.897 2.373C24.3775 2.34226 24.865 2.32668 25.3454 2.32668C25.65 2.32668 25.9586 2.33299 26.2627 2.34532C26.7109 2.36361 27.1247 2.59017 27.3817 2.95774L28.4493 4.48531C28.906 5.13874 28.7338 6.04014 28.0685 6.47934L27.6646 6.7459C27.4371 6.89599 27.1712 6.97736 26.8987 6.98013L12.1378 7.13075C11.917 7.133 11.7063 7.01724 11.5915 6.81558C11.4158 6.50695 11.5494 6.11224 11.866 5.95164ZM6.43034 15.7932C6.22443 15.5188 6.07044 15.2038 5.98436 14.8622C5.96076 14.7713 5.94247 14.6787 5.92884 14.5843C6.03799 14.6091 6.15953 14.6232 6.28815 14.6232C6.47583 14.6232 6.64864 14.5937 6.78906 14.5436C6.80971 14.6539 6.84039 14.7607 6.88051 14.8622C6.92889 14.9873 6.99143 15.1053 7.06636 15.2144C6.93237 15.2787 6.78906 15.3796 6.65631 15.5124C6.56545 15.6026 6.48993 15.6987 6.43034 15.7932ZM8.1614 16.8168C7.71247 16.7531 7.29882 16.5761 6.95249 16.3153C7.04695 16.2557 7.14253 16.1802 7.23339 16.0893C7.36614 15.9566 7.46703 15.8132 7.53075 15.6787C7.72958 15.8144 7.95673 15.9105 8.20217 15.9566C8.15196 16.097 8.12193 16.2699 8.12193 16.4575C8.12187 16.5862 8.13662 16.7077 8.1614 16.8168ZM8.89949 16.8168C8.92433 16.7076 8.93843 16.5861 8.93843 16.4575C8.93843 16.2699 8.90834 16.097 8.85878 15.9566C9.10363 15.9105 9.33078 15.8144 9.52961 15.6787C9.59333 15.8132 9.69422 15.9566 9.82697 16.0893C9.91783 16.1802 10.0134 16.2557 10.1078 16.3153C9.76148 16.5761 9.34848 16.7531 8.89949 16.8168ZM11.076 14.8621C10.9899 15.2037 10.8364 15.5188 10.6299 15.7931C10.5703 15.6987 10.4948 15.6026 10.4039 15.5123C10.2712 15.3795 10.1284 15.2787 9.99394 15.2143C10.0689 15.1052 10.1314 14.9872 10.1797 14.8621C10.2199 14.7606 10.2505 14.6538 10.2712 14.5435C10.4117 14.5937 10.5845 14.6232 10.7721 14.6232C10.9008 14.6232 11.0222 14.609 11.1314 14.5842C11.1179 14.6786 11.0996 14.7713 11.076 14.8621ZM10.404 12.9187C10.4948 12.8279 10.5704 12.7323 10.63 12.6379C10.8914 12.9842 11.0677 13.3972 11.1315 13.8462C11.0223 13.8214 10.9008 13.8073 10.7721 13.8073C10.5845 13.8073 10.4117 13.8373 10.2712 13.8869C10.2258 13.6421 10.1297 13.4143 9.994 13.2161C10.1285 13.1524 10.2712 13.0515 10.404 12.9187ZM8.89949 11.6142C9.34848 11.6773 9.76148 11.8543 10.1078 12.1157C10.0134 12.1753 9.91783 12.2508 9.82697 12.3416C9.69422 12.4738 9.59333 12.6172 9.52961 12.7517C9.33078 12.616 9.10363 12.5198 8.85878 12.4738C8.90834 12.334 8.93843 12.1611 8.93843 11.9735C8.93843 11.8449 8.92433 11.7234 8.89949 11.6142ZM9.24051 14.2155C9.24051 14.5029 9.06882 14.7507 8.8222 14.8622C8.73311 14.9029 8.63399 14.9253 8.53015 14.9253C8.42631 14.9253 8.32719 14.9029 8.2381 14.8622C7.99148 14.7507 7.81979 14.5029 7.81979 14.2155C7.81979 13.8238 8.13839 13.5052 8.53015 13.5052C8.92197 13.5051 9.24051 13.8237 9.24051 14.2155ZM8.1614 11.6142C8.13662 11.7233 8.12187 11.8449 8.12187 11.9735C8.12187 12.1611 8.15196 12.334 8.20211 12.4738C7.95667 12.5198 7.72952 12.616 7.53069 12.7517C7.46697 12.6172 7.36608 12.4738 7.23333 12.3416C7.14247 12.2508 7.04689 12.1753 6.95243 12.1157C7.29882 11.8544 7.71247 11.6774 8.1614 11.6142ZM6.65631 12.9187C6.78906 13.0515 6.93243 13.1524 7.06636 13.2161C6.93066 13.4143 6.83443 13.6421 6.78906 13.8869C6.64864 13.8373 6.47577 13.8073 6.28815 13.8073C6.15953 13.8073 6.03799 13.8214 5.92884 13.8462C5.99256 13.3972 6.16956 12.9842 6.43034 12.6379C6.48993 12.7322 6.56545 12.8279 6.65631 12.9187ZM3.20145 9.20171L3.69062 8.03505C3.7374 7.92348 3.83605 7.842 3.9544 7.81716L5.6742 7.45573C5.98979 7.38941 6.23204 7.73208 6.0643 8.00744L5.49796 8.93722C5.46445 8.99226 5.41707 9.03752 5.36055 9.06849L3.88744 9.87632C3.73133 9.96193 3.53633 9.92352 3.42429 9.78516L3.25472 9.57571C3.16953 9.47034 3.149 9.32668 3.20145 9.20171Z" fill="#5653F3"/>
</svg>
