<svg width="710" height="418" viewBox="0 0 710 418" fill="none" xmlns="http://www.w3.org/2000/svg">
<path d="M710 0H0V418H710V0Z" fill="white"/>
<path d="M114.5 147C135.763 147 153 129.763 153 108.5C153 87.237 135.763 70 114.5 70C93.237 70 76 87.237 76 108.5C76 129.763 93.237 147 114.5 147Z" fill="#5653F3"/>
<path d="M84.2281 383.786C83.9295 383.786 83.6448 383.744 83.3741 383.66C83.0941 383.585 82.8608 383.469 82.6741 383.31L83.0241 382.554C83.3228 382.806 83.7055 382.932 84.1721 382.932C84.5641 382.932 84.8628 382.815 85.0681 382.582C85.2828 382.349 85.3901 382.003 85.3901 381.546V373.65H86.3841V381.546C86.3841 382.227 86.1975 382.769 85.8241 383.17C85.4601 383.581 84.9281 383.786 84.2281 383.786ZM85.8941 372.026C85.6888 372.026 85.5161 371.956 85.3761 371.816C85.2361 371.676 85.1661 371.508 85.1661 371.312C85.1661 371.116 85.2361 370.953 85.3761 370.822C85.5161 370.682 85.6888 370.612 85.8941 370.612C86.0995 370.612 86.2721 370.677 86.4121 370.808C86.5521 370.939 86.6221 371.102 86.6221 371.298C86.6221 371.503 86.5521 371.676 86.4121 371.816C86.2815 371.956 86.1088 372.026 85.8941 372.026ZM92.1999 381.07C91.5746 381.07 91.0286 380.953 90.5619 380.72C90.0953 380.487 89.7313 380.137 89.4699 379.67C89.2179 379.203 89.0919 378.62 89.0919 377.92V373.65H90.0859V377.808C90.0859 378.592 90.2773 379.185 90.6599 379.586C91.0519 379.978 91.5979 380.174 92.2979 380.174C92.8113 380.174 93.2546 380.071 93.6279 379.866C94.0106 379.651 94.2999 379.343 94.4959 378.942C94.7013 378.541 94.8039 378.06 94.8039 377.5V373.65H95.7979V381H94.8459V378.984L94.9999 379.348C94.7666 379.889 94.4026 380.314 93.9079 380.622C93.4226 380.921 92.8533 381.07 92.1999 381.07ZM102.32 373.58C102.918 373.58 103.44 373.697 103.888 373.93C104.346 374.154 104.7 374.499 104.952 374.966C105.214 375.433 105.344 376.021 105.344 376.73V381H104.35V376.828C104.35 376.053 104.154 375.47 103.762 375.078C103.38 374.677 102.838 374.476 102.138 374.476C101.616 374.476 101.158 374.583 100.766 374.798C100.384 375.003 100.085 375.307 99.87 375.708C99.665 376.1 99.562 376.576 99.562 377.136V381H98.568V373.65H99.52V375.666L99.366 375.288C99.6 374.756 99.973 374.341 100.486 374.042C101 373.734 101.611 373.58 102.32 373.58Z" fill="black"/>
<path d="M221.907 381.084C221.17 381.084 220.484 380.963 219.849 380.72C219.224 380.468 218.678 380.118 218.211 379.67C217.754 379.213 217.394 378.685 217.133 378.088C216.881 377.481 216.755 376.819 216.755 376.1C216.755 375.381 216.881 374.723 217.133 374.126C217.394 373.519 217.754 372.992 218.211 372.544C218.678 372.087 219.224 371.737 219.849 371.494C220.474 371.242 221.16 371.116 221.907 371.116C222.644 371.116 223.326 371.242 223.951 371.494C224.576 371.737 225.118 372.082 225.575 372.53C226.042 372.978 226.401 373.505 226.653 374.112C226.914 374.719 227.045 375.381 227.045 376.1C227.045 376.819 226.914 377.481 226.653 378.088C226.401 378.695 226.042 379.222 225.575 379.67C225.118 380.118 224.576 380.468 223.951 380.72C223.326 380.963 222.644 381.084 221.907 381.084ZM221.907 380.16C222.495 380.16 223.036 380.062 223.531 379.866C224.035 379.661 224.469 379.376 224.833 379.012C225.206 378.639 225.496 378.209 225.701 377.724C225.906 377.229 226.009 376.688 226.009 376.1C226.009 375.512 225.906 374.975 225.701 374.49C225.496 373.995 225.206 373.566 224.833 373.202C224.469 372.829 224.035 372.544 223.531 372.348C223.036 372.143 222.495 372.04 221.907 372.04C221.319 372.04 220.773 372.143 220.269 372.348C219.765 372.544 219.326 372.829 218.953 373.202C218.589 373.566 218.3 373.995 218.085 374.49C217.88 374.975 217.777 375.512 217.777 376.1C217.777 376.679 217.88 377.215 218.085 377.71C218.3 378.205 218.589 378.639 218.953 379.012C219.326 379.376 219.765 379.661 220.269 379.866C220.773 380.062 221.319 380.16 221.907 380.16ZM232.209 381.07C231.481 381.07 230.828 380.911 230.249 380.594C229.68 380.267 229.232 379.824 228.905 379.264C228.579 378.695 228.415 378.046 228.415 377.318C228.415 376.581 228.579 375.932 228.905 375.372C229.232 374.812 229.68 374.373 230.249 374.056C230.828 373.739 231.481 373.58 232.209 373.58C232.835 373.58 233.399 373.701 233.903 373.944C234.407 374.187 234.804 374.551 235.093 375.036L234.351 375.54C234.099 375.167 233.787 374.891 233.413 374.714C233.04 374.537 232.634 374.448 232.195 374.448C231.673 374.448 231.201 374.569 230.781 374.812C230.361 375.045 230.03 375.377 229.787 375.806C229.545 376.235 229.423 376.739 229.423 377.318C229.423 377.897 229.545 378.401 229.787 378.83C230.03 379.259 230.361 379.595 230.781 379.838C231.201 380.071 231.673 380.188 232.195 380.188C232.634 380.188 233.04 380.099 233.413 379.922C233.787 379.745 234.099 379.474 234.351 379.11L235.093 379.614C234.804 380.09 234.407 380.454 233.903 380.706C233.399 380.949 232.835 381.07 232.209 381.07ZM239.452 381.07C238.761 381.07 238.229 380.883 237.856 380.51C237.483 380.137 237.296 379.609 237.296 378.928V372.026H238.29V378.872C238.29 379.301 238.397 379.633 238.612 379.866C238.836 380.099 239.153 380.216 239.564 380.216C240.003 380.216 240.367 380.09 240.656 379.838L241.006 380.552C240.81 380.729 240.572 380.86 240.292 380.944C240.021 381.028 239.741 381.07 239.452 381.07ZM235.98 374.476V373.65H240.53V374.476H235.98ZM249.728 381.084C248.972 381.084 248.3 380.888 247.712 380.496C247.124 380.095 246.662 379.525 246.326 378.788C245.99 378.041 245.822 377.145 245.822 376.1C245.822 375.055 245.99 374.163 246.326 373.426C246.662 372.679 247.124 372.11 247.712 371.718C248.3 371.317 248.972 371.116 249.728 371.116C250.484 371.116 251.156 371.317 251.744 371.718C252.332 372.11 252.794 372.679 253.13 373.426C253.475 374.163 253.648 375.055 253.648 376.1C253.648 377.145 253.475 378.041 253.13 378.788C252.794 379.525 252.332 380.095 251.744 380.496C251.156 380.888 250.484 381.084 249.728 381.084ZM249.728 380.16C250.306 380.16 250.81 380.006 251.24 379.698C251.669 379.381 252.005 378.923 252.248 378.326C252.49 377.719 252.612 376.977 252.612 376.1C252.612 375.223 252.49 374.485 252.248 373.888C252.005 373.281 251.669 372.824 251.24 372.516C250.81 372.199 250.306 372.04 249.728 372.04C249.168 372.04 248.668 372.199 248.23 372.516C247.791 372.824 247.45 373.281 247.208 373.888C246.965 374.485 246.844 375.223 246.844 376.1C246.844 376.977 246.965 377.719 247.208 378.326C247.45 378.923 247.791 379.381 248.23 379.698C248.668 380.006 249.168 380.16 249.728 380.16ZM258.143 371.116C259.011 371.116 259.744 371.312 260.341 371.704C260.938 372.087 261.391 372.642 261.699 373.37C262.007 374.098 262.161 374.98 262.161 376.016C262.161 377.117 261.97 378.046 261.587 378.802C261.214 379.558 260.691 380.127 260.019 380.51C259.347 380.893 258.568 381.084 257.681 381.084C257.242 381.084 256.822 381.042 256.421 380.958C256.029 380.874 255.674 380.739 255.357 380.552L255.763 379.74C256.015 379.908 256.304 380.029 256.631 380.104C256.967 380.169 257.312 380.202 257.667 380.202C258.722 380.202 259.562 379.866 260.187 379.194C260.822 378.522 261.139 377.519 261.139 376.184C261.139 375.969 261.125 375.713 261.097 375.414C261.078 375.115 261.027 374.817 260.943 374.518L261.293 374.784C261.2 375.269 260.999 375.685 260.691 376.03C260.392 376.366 260.019 376.623 259.571 376.8C259.132 376.977 258.642 377.066 258.101 377.066C257.457 377.066 256.883 376.945 256.379 376.702C255.884 376.459 255.497 376.119 255.217 375.68C254.937 375.241 254.797 374.723 254.797 374.126C254.797 373.51 254.942 372.978 255.231 372.53C255.52 372.082 255.917 371.737 256.421 371.494C256.934 371.242 257.508 371.116 258.143 371.116ZM258.185 371.97C257.718 371.97 257.303 372.059 256.939 372.236C256.584 372.404 256.304 372.647 256.099 372.964C255.894 373.281 255.791 373.659 255.791 374.098C255.791 374.742 256.01 375.255 256.449 375.638C256.897 376.021 257.499 376.212 258.255 376.212C258.759 376.212 259.198 376.119 259.571 375.932C259.954 375.745 260.248 375.489 260.453 375.162C260.668 374.835 260.775 374.471 260.775 374.07C260.775 373.706 260.677 373.365 260.481 373.048C260.285 372.731 259.996 372.474 259.613 372.278C259.23 372.073 258.754 371.97 258.185 371.97ZM263.528 383.044L264.144 380.454L264.256 381.056C264.041 381.056 263.859 380.986 263.71 380.846C263.57 380.706 263.5 380.524 263.5 380.3C263.5 380.076 263.57 379.894 263.71 379.754C263.859 379.614 264.037 379.544 264.242 379.544C264.457 379.544 264.629 379.619 264.76 379.768C264.9 379.917 264.97 380.095 264.97 380.3C264.97 380.375 264.965 380.449 264.956 380.524C264.947 380.599 264.928 380.683 264.9 380.776C264.872 380.869 264.835 380.981 264.788 381.112L264.2 383.044H263.528ZM267.983 381V371.62L268.431 372.096H265.673V371.2H268.991V381H267.983ZM274.385 371.116C275.253 371.116 275.986 371.312 276.583 371.704C277.181 372.087 277.633 372.642 277.941 373.37C278.249 374.098 278.403 374.98 278.403 376.016C278.403 377.117 278.212 378.046 277.829 378.802C277.456 379.558 276.933 380.127 276.261 380.51C275.589 380.893 274.81 381.084 273.923 381.084C273.485 381.084 273.065 381.042 272.663 380.958C272.271 380.874 271.917 380.739 271.599 380.552L272.005 379.74C272.257 379.908 272.547 380.029 272.873 380.104C273.209 380.169 273.555 380.202 273.909 380.202C274.964 380.202 275.804 379.866 276.429 379.194C277.064 378.522 277.381 377.519 277.381 376.184C277.381 375.969 277.367 375.713 277.339 375.414C277.321 375.115 277.269 374.817 277.185 374.518L277.535 374.784C277.442 375.269 277.241 375.685 276.933 376.03C276.635 376.366 276.261 376.623 275.813 376.8C275.375 376.977 274.885 377.066 274.343 377.066C273.699 377.066 273.125 376.945 272.621 376.702C272.127 376.459 271.739 376.119 271.459 375.68C271.179 375.241 271.039 374.723 271.039 374.126C271.039 373.51 271.184 372.978 271.473 372.53C271.763 372.082 272.159 371.737 272.663 371.494C273.177 371.242 273.751 371.116 274.385 371.116ZM274.427 371.97C273.961 371.97 273.545 372.059 273.181 372.236C272.827 372.404 272.547 372.647 272.341 372.964C272.136 373.281 272.033 373.659 272.033 374.098C272.033 374.742 272.253 375.255 272.691 375.638C273.139 376.021 273.741 376.212 274.497 376.212C275.001 376.212 275.44 376.119 275.813 375.932C276.196 375.745 276.49 375.489 276.695 375.162C276.91 374.835 277.017 374.471 277.017 374.07C277.017 373.706 276.919 373.365 276.723 373.048C276.527 372.731 276.238 372.474 275.855 372.278C275.473 372.073 274.997 371.97 274.427 371.97Z" fill="black"/>
<path d="M327.701 381V371.2H328.555L335.317 379.712H334.869V371.2H335.891V381H335.037L328.289 372.488H328.737V381H327.701ZM341.875 381.07C341.166 381.07 340.527 380.911 339.957 380.594C339.397 380.267 338.954 379.824 338.627 379.264C338.301 378.695 338.137 378.046 338.137 377.318C338.137 376.581 338.301 375.932 338.627 375.372C338.954 374.812 339.397 374.373 339.957 374.056C340.517 373.739 341.157 373.58 341.875 373.58C342.603 373.58 343.247 373.739 343.807 374.056C344.377 374.373 344.82 374.812 345.137 375.372C345.464 375.932 345.627 376.581 345.627 377.318C345.627 378.046 345.464 378.695 345.137 379.264C344.82 379.824 344.377 380.267 343.807 380.594C343.238 380.911 342.594 381.07 341.875 381.07ZM341.875 380.188C342.407 380.188 342.879 380.071 343.289 379.838C343.7 379.595 344.022 379.259 344.255 378.83C344.498 378.391 344.619 377.887 344.619 377.318C344.619 376.739 344.498 376.235 344.255 375.806C344.022 375.377 343.7 375.045 343.289 374.812C342.879 374.569 342.412 374.448 341.889 374.448C341.367 374.448 340.9 374.569 340.489 374.812C340.079 375.045 339.752 375.377 339.509 375.806C339.267 376.235 339.145 376.739 339.145 377.318C339.145 377.887 339.267 378.391 339.509 378.83C339.752 379.259 340.079 379.595 340.489 379.838C340.9 380.071 341.362 380.188 341.875 380.188ZM349.342 381L346.08 373.65H347.116L350.112 380.468H349.622L352.66 373.65H353.64L350.364 381H349.342ZM357.864 381V380.286L361.938 376.296C362.311 375.932 362.591 375.615 362.778 375.344C362.964 375.064 363.09 374.803 363.156 374.56C363.221 374.317 363.254 374.089 363.254 373.874C363.254 373.305 363.058 372.857 362.666 372.53C362.283 372.203 361.714 372.04 360.958 372.04C360.379 372.04 359.866 372.129 359.418 372.306C358.979 372.483 358.601 372.759 358.284 373.132L357.57 372.516C357.952 372.068 358.442 371.723 359.04 371.48C359.637 371.237 360.304 371.116 361.042 371.116C361.704 371.116 362.278 371.223 362.764 371.438C363.249 371.643 363.622 371.947 363.884 372.348C364.154 372.749 364.29 373.221 364.29 373.762C364.29 374.079 364.243 374.392 364.15 374.7C364.066 375.008 363.907 375.335 363.674 375.68C363.45 376.016 363.118 376.399 362.68 376.828L358.942 380.496L358.662 380.104H364.738V381H357.864ZM369.727 381.084C368.943 381.084 368.266 380.972 367.697 380.748C367.137 380.524 366.703 380.202 366.395 379.782C366.096 379.353 365.947 378.849 365.947 378.27C365.947 377.71 366.091 377.234 366.381 376.842C366.679 376.441 367.109 376.133 367.669 375.918C368.238 375.703 368.924 375.596 369.727 375.596C370.52 375.596 371.201 375.703 371.771 375.918C372.34 376.133 372.774 376.441 373.073 376.842C373.381 377.234 373.535 377.71 373.535 378.27C373.535 378.849 373.381 379.353 373.073 379.782C372.765 380.202 372.326 380.524 371.757 380.748C371.187 380.972 370.511 381.084 369.727 381.084ZM369.727 380.23C370.595 380.23 371.271 380.053 371.757 379.698C372.251 379.343 372.499 378.863 372.499 378.256C372.499 377.649 372.251 377.173 371.757 376.828C371.271 376.473 370.595 376.296 369.727 376.296C368.859 376.296 368.182 376.473 367.697 376.828C367.211 377.173 366.969 377.649 366.969 378.256C366.969 378.863 367.211 379.343 367.697 379.698C368.182 380.053 368.859 380.23 369.727 380.23ZM369.727 376.17C368.999 376.17 368.378 376.072 367.865 375.876C367.361 375.68 366.973 375.4 366.703 375.036C366.432 374.663 366.297 374.219 366.297 373.706C366.297 373.165 366.437 372.703 366.717 372.32C367.006 371.928 367.407 371.629 367.921 371.424C368.434 371.219 369.036 371.116 369.727 371.116C370.417 371.116 371.019 371.219 371.533 371.424C372.055 371.629 372.461 371.928 372.751 372.32C373.04 372.703 373.185 373.165 373.185 373.706C373.185 374.219 373.049 374.663 372.779 375.036C372.508 375.4 372.111 375.68 371.589 375.876C371.075 376.072 370.455 376.17 369.727 376.17ZM369.727 375.498C370.492 375.498 371.089 375.339 371.519 375.022C371.948 374.705 372.163 374.28 372.163 373.748C372.163 373.188 371.939 372.754 371.491 372.446C371.052 372.129 370.464 371.97 369.727 371.97C368.989 371.97 368.401 372.129 367.963 372.446C367.524 372.754 367.305 373.183 367.305 373.734C367.305 374.275 367.515 374.705 367.935 375.022C368.364 375.339 368.961 375.498 369.727 375.498ZM375.123 383.044L375.739 380.454L375.851 381.056C375.636 381.056 375.454 380.986 375.305 380.846C375.165 380.706 375.095 380.524 375.095 380.3C375.095 380.076 375.165 379.894 375.305 379.754C375.454 379.614 375.632 379.544 375.837 379.544C376.052 379.544 376.224 379.619 376.355 379.768C376.495 379.917 376.565 380.095 376.565 380.3C376.565 380.375 376.56 380.449 376.551 380.524C376.542 380.599 376.523 380.683 376.495 380.776C376.467 380.869 376.43 380.981 376.383 381.112L375.795 383.044H375.123ZM379.578 381V371.62L380.026 372.096H377.268V371.2H380.586V381H379.578ZM385.98 371.116C386.848 371.116 387.581 371.312 388.178 371.704C388.776 372.087 389.228 372.642 389.536 373.37C389.844 374.098 389.998 374.98 389.998 376.016C389.998 377.117 389.807 378.046 389.424 378.802C389.051 379.558 388.528 380.127 387.856 380.51C387.184 380.893 386.405 381.084 385.518 381.084C385.08 381.084 384.66 381.042 384.258 380.958C383.866 380.874 383.512 380.739 383.194 380.552L383.6 379.74C383.852 379.908 384.142 380.029 384.468 380.104C384.804 380.169 385.15 380.202 385.504 380.202C386.559 380.202 387.399 379.866 388.024 379.194C388.659 378.522 388.976 377.519 388.976 376.184C388.976 375.969 388.962 375.713 388.934 375.414C388.916 375.115 388.864 374.817 388.78 374.518L389.13 374.784C389.037 375.269 388.836 375.685 388.528 376.03C388.23 376.366 387.856 376.623 387.408 376.8C386.97 376.977 386.48 377.066 385.938 377.066C385.294 377.066 384.72 376.945 384.216 376.702C383.722 376.459 383.334 376.119 383.054 375.68C382.774 375.241 382.634 374.723 382.634 374.126C382.634 373.51 382.779 372.978 383.068 372.53C383.358 372.082 383.754 371.737 384.258 371.494C384.772 371.242 385.346 371.116 385.98 371.116ZM386.022 371.97C385.556 371.97 385.14 372.059 384.776 372.236C384.422 372.404 384.142 372.647 383.936 372.964C383.731 373.281 383.628 373.659 383.628 374.098C383.628 374.742 383.848 375.255 384.286 375.638C384.734 376.021 385.336 376.212 386.092 376.212C386.596 376.212 387.035 376.119 387.408 375.932C387.791 375.745 388.085 375.489 388.29 375.162C388.505 374.835 388.612 374.471 388.612 374.07C388.612 373.706 388.514 373.365 388.318 373.048C388.122 372.731 387.833 372.474 387.45 372.278C387.068 372.073 386.592 371.97 386.022 371.97Z" fill="black"/>
<path d="M437.586 381L442.066 371.2H443.088L447.568 381H446.476L442.36 371.802H442.78L438.664 381H437.586ZM439.35 378.382L439.658 377.542H445.356L445.664 378.382H439.35ZM452.773 381.07C452.139 381.07 451.565 380.925 451.051 380.636C450.538 380.337 450.127 379.913 449.819 379.362C449.521 378.802 449.371 378.121 449.371 377.318C449.371 376.515 449.521 375.839 449.819 375.288C450.118 374.728 450.524 374.303 451.037 374.014C451.551 373.725 452.129 373.58 452.773 373.58C453.473 373.58 454.099 373.739 454.649 374.056C455.209 374.364 455.648 374.803 455.965 375.372C456.283 375.932 456.441 376.581 456.441 377.318C456.441 378.065 456.283 378.718 455.965 379.278C455.648 379.838 455.209 380.277 454.649 380.594C454.099 380.911 453.473 381.07 452.773 381.07ZM448.979 383.716V373.65H449.931V375.862L449.833 377.332L449.973 378.816V383.716H448.979ZM452.703 380.188C453.226 380.188 453.693 380.071 454.103 379.838C454.514 379.595 454.841 379.259 455.083 378.83C455.326 378.391 455.447 377.887 455.447 377.318C455.447 376.749 455.326 376.249 455.083 375.82C454.841 375.391 454.514 375.055 454.103 374.812C453.693 374.569 453.226 374.448 452.703 374.448C452.181 374.448 451.709 374.569 451.289 374.812C450.879 375.055 450.552 375.391 450.309 375.82C450.076 376.249 449.959 376.749 449.959 377.318C449.959 377.887 450.076 378.391 450.309 378.83C450.552 379.259 450.879 379.595 451.289 379.838C451.709 380.071 452.181 380.188 452.703 380.188ZM458.468 381V373.65H459.42V375.652L459.322 375.302C459.527 374.742 459.872 374.317 460.358 374.028C460.843 373.729 461.445 373.58 462.164 373.58V374.546C462.126 374.546 462.089 374.546 462.052 374.546C462.014 374.537 461.977 374.532 461.94 374.532C461.165 374.532 460.558 374.77 460.12 375.246C459.681 375.713 459.462 376.38 459.462 377.248V381H458.468ZM468.801 381V371.62L469.249 372.096H466.491V371.2H469.809V381H468.801ZM473.873 381L478.101 371.648L478.409 372.096H472.347L472.865 371.606V373.93H471.871V371.2H479.067V371.914L474.965 381H473.873ZM479.713 383.044L480.329 380.454L480.441 381.056C480.227 381.056 480.045 380.986 479.895 380.846C479.755 380.706 479.685 380.524 479.685 380.3C479.685 380.076 479.755 379.894 479.895 379.754C480.045 379.614 480.222 379.544 480.427 379.544C480.642 379.544 480.815 379.619 480.945 379.768C481.085 379.917 481.155 380.095 481.155 380.3C481.155 380.375 481.151 380.449 481.141 380.524C481.132 380.599 481.113 380.683 481.085 380.776C481.057 380.869 481.02 380.981 480.973 381.112L480.385 383.044H479.713ZM482.579 381V380.286L486.653 376.296C487.026 375.932 487.306 375.615 487.493 375.344C487.679 375.064 487.805 374.803 487.871 374.56C487.936 374.317 487.969 374.089 487.969 373.874C487.969 373.305 487.773 372.857 487.381 372.53C486.998 372.203 486.429 372.04 485.673 372.04C485.094 372.04 484.581 372.129 484.133 372.306C483.694 372.483 483.316 372.759 482.999 373.132L482.285 372.516C482.667 372.068 483.157 371.723 483.755 371.48C484.352 371.237 485.019 371.116 485.757 371.116C486.419 371.116 486.993 371.223 487.479 371.438C487.964 371.643 488.337 371.947 488.599 372.348C488.869 372.749 489.005 373.221 489.005 373.762C489.005 374.079 488.958 374.392 488.865 374.7C488.781 375.008 488.622 375.335 488.389 375.68C488.165 376.016 487.833 376.399 487.395 376.828L483.657 380.496L483.377 380.104H489.453V381H482.579ZM494.596 381.084C493.84 381.084 493.168 380.888 492.58 380.496C491.992 380.095 491.53 379.525 491.194 378.788C490.858 378.041 490.69 377.145 490.69 376.1C490.69 375.055 490.858 374.163 491.194 373.426C491.53 372.679 491.992 372.11 492.58 371.718C493.168 371.317 493.84 371.116 494.596 371.116C495.352 371.116 496.024 371.317 496.612 371.718C497.2 372.11 497.662 372.679 497.998 373.426C498.344 374.163 498.516 375.055 498.516 376.1C498.516 377.145 498.344 378.041 497.998 378.788C497.662 379.525 497.2 380.095 496.612 380.496C496.024 380.888 495.352 381.084 494.596 381.084ZM494.596 380.16C495.175 380.16 495.679 380.006 496.108 379.698C496.538 379.381 496.874 378.923 497.116 378.326C497.359 377.719 497.48 376.977 497.48 376.1C497.48 375.223 497.359 374.485 497.116 373.888C496.874 373.281 496.538 372.824 496.108 372.516C495.679 372.199 495.175 372.04 494.596 372.04C494.036 372.04 493.537 372.199 493.098 372.516C492.66 372.824 492.319 373.281 492.076 373.888C491.834 374.485 491.712 375.223 491.712 376.1C491.712 376.977 491.834 377.719 492.076 378.326C492.319 378.923 492.66 379.381 493.098 379.698C493.537 380.006 494.036 380.16 494.596 380.16Z" fill="black"/>
<path d="M560.239 381V371.2H561.093L565.573 378.844H565.125L569.563 371.2H570.417V381H569.423V372.754H569.661L565.573 379.754H565.083L560.967 372.754H561.233V381H560.239ZM578.006 381V379.376L577.964 379.11V376.394C577.964 375.769 577.787 375.288 577.432 374.952C577.087 374.616 576.569 374.448 575.878 374.448C575.402 374.448 574.95 374.527 574.52 374.686C574.091 374.845 573.727 375.055 573.428 375.316L572.98 374.574C573.354 374.257 573.802 374.014 574.324 373.846C574.847 373.669 575.398 373.58 575.976 373.58C576.928 373.58 577.661 373.818 578.174 374.294C578.697 374.761 578.958 375.475 578.958 376.436V381H578.006ZM575.472 381.07C574.922 381.07 574.441 380.981 574.03 380.804C573.629 380.617 573.321 380.365 573.106 380.048C572.892 379.721 572.784 379.348 572.784 378.928C572.784 378.545 572.873 378.2 573.05 377.892C573.237 377.575 573.536 377.323 573.946 377.136C574.366 376.94 574.926 376.842 575.626 376.842H578.16V377.584H575.654C574.945 377.584 574.45 377.71 574.17 377.962C573.9 378.214 573.764 378.527 573.764 378.9C573.764 379.32 573.928 379.656 574.254 379.908C574.581 380.16 575.038 380.286 575.626 380.286C576.186 380.286 576.667 380.16 577.068 379.908C577.479 379.647 577.778 379.273 577.964 378.788L578.188 379.474C578.002 379.959 577.675 380.347 577.208 380.636C576.751 380.925 576.172 381.07 575.472 381.07ZM581.577 383.786C581.232 383.786 580.901 383.73 580.583 383.618C580.275 383.506 580.009 383.338 579.785 383.114L580.247 382.372C580.434 382.549 580.635 382.685 580.849 382.778C581.073 382.881 581.321 382.932 581.591 382.932C581.918 382.932 582.198 382.839 582.431 382.652C582.674 382.475 582.903 382.157 583.117 381.7L583.593 380.622L583.705 380.468L586.729 373.65H587.709L584.027 381.882C583.822 382.358 583.593 382.736 583.341 383.016C583.099 383.296 582.833 383.492 582.543 383.604C582.254 383.725 581.932 383.786 581.577 383.786ZM583.537 381.21L580.149 373.65H581.185L584.181 380.398L583.537 381.21ZM591.933 381V380.286L596.007 376.296C596.381 375.932 596.661 375.615 596.847 375.344C597.034 375.064 597.16 374.803 597.225 374.56C597.291 374.317 597.323 374.089 597.323 373.874C597.323 373.305 597.127 372.857 596.735 372.53C596.353 372.203 595.783 372.04 595.027 372.04C594.449 372.04 593.935 372.129 593.487 372.306C593.049 372.483 592.671 372.759 592.353 373.132L591.639 372.516C592.022 372.068 592.512 371.723 593.109 371.48C593.707 371.237 594.374 371.116 595.111 371.116C595.774 371.116 596.348 371.223 596.833 371.438C597.319 371.643 597.692 371.947 597.953 372.348C598.224 372.749 598.359 373.221 598.359 373.762C598.359 374.079 598.313 374.392 598.219 374.7C598.135 375.008 597.977 375.335 597.743 375.68C597.519 376.016 597.188 376.399 596.749 376.828L593.011 380.496L592.731 380.104H598.807V381H591.933ZM604.063 381.084C603.195 381.084 602.462 380.893 601.865 380.51C601.268 380.118 600.815 379.558 600.507 378.83C600.199 378.093 600.045 377.211 600.045 376.184C600.045 375.073 600.232 374.145 600.605 373.398C600.988 372.642 601.515 372.073 602.187 371.69C602.859 371.307 603.638 371.116 604.525 371.116C604.964 371.116 605.384 371.158 605.785 371.242C606.186 371.326 606.541 371.461 606.849 371.648L606.443 372.46C606.191 372.292 605.902 372.175 605.575 372.11C605.248 372.035 604.903 371.998 604.539 371.998C603.484 371.998 602.64 372.334 602.005 373.006C601.38 373.678 601.067 374.681 601.067 376.016C601.067 376.221 601.076 376.478 601.095 376.786C601.123 377.085 601.179 377.383 601.263 377.682L600.913 377.416C601.016 376.931 601.216 376.52 601.515 376.184C601.814 375.839 602.187 375.577 602.635 375.4C603.083 375.223 603.573 375.134 604.105 375.134C604.758 375.134 605.332 375.255 605.827 375.498C606.322 375.741 606.709 376.081 606.989 376.52C607.269 376.959 607.409 377.477 607.409 378.074C607.409 378.681 607.264 379.213 606.975 379.67C606.686 380.118 606.284 380.468 605.771 380.72C605.267 380.963 604.698 381.084 604.063 381.084ZM604.021 380.23C604.488 380.23 604.898 380.146 605.253 379.978C605.617 379.801 605.902 379.553 606.107 379.236C606.312 378.909 606.415 378.531 606.415 378.102C606.415 377.458 606.191 376.945 605.743 376.562C605.304 376.179 604.707 375.988 603.951 375.988C603.447 375.988 603.008 376.081 602.635 376.268C602.262 376.455 601.968 376.711 601.753 377.038C601.538 377.355 601.431 377.719 601.431 378.13C601.431 378.485 601.529 378.825 601.725 379.152C601.921 379.469 602.21 379.731 602.593 379.936C602.985 380.132 603.461 380.23 604.021 380.23ZM608.769 383.044L609.385 380.454L609.497 381.056C609.282 381.056 609.1 380.986 608.951 380.846C608.811 380.706 608.741 380.524 608.741 380.3C608.741 380.076 608.811 379.894 608.951 379.754C609.1 379.614 609.278 379.544 609.483 379.544C609.698 379.544 609.87 379.619 610.001 379.768C610.141 379.917 610.211 380.095 610.211 380.3C610.211 380.375 610.206 380.449 610.197 380.524C610.188 380.599 610.169 380.683 610.141 380.776C610.113 380.869 610.076 380.981 610.029 381.112L609.441 383.044H608.769ZM611.635 381V380.286L615.709 376.296C616.082 375.932 616.362 375.615 616.549 375.344C616.735 375.064 616.861 374.803 616.927 374.56C616.992 374.317 617.025 374.089 617.025 373.874C617.025 373.305 616.829 372.857 616.437 372.53C616.054 372.203 615.485 372.04 614.729 372.04C614.15 372.04 613.637 372.129 613.189 372.306C612.75 372.483 612.372 372.759 612.055 373.132L611.341 372.516C611.723 372.068 612.213 371.723 612.811 371.48C613.408 371.237 614.075 371.116 614.813 371.116C615.475 371.116 616.049 371.223 616.535 371.438C617.02 371.643 617.393 371.947 617.655 372.348C617.925 372.749 618.061 373.221 618.061 373.762C618.061 374.079 618.014 374.392 617.921 374.7C617.837 375.008 617.678 375.335 617.445 375.68C617.221 376.016 616.889 376.399 616.451 376.828L612.713 380.496L612.433 380.104H618.509V381H611.635ZM623.652 381.084C622.896 381.084 622.224 380.888 621.636 380.496C621.048 380.095 620.586 379.525 620.25 378.788C619.914 378.041 619.746 377.145 619.746 376.1C619.746 375.055 619.914 374.163 620.25 373.426C620.586 372.679 621.048 372.11 621.636 371.718C622.224 371.317 622.896 371.116 623.652 371.116C624.408 371.116 625.08 371.317 625.668 371.718C626.256 372.11 626.718 372.679 627.054 373.426C627.4 374.163 627.572 375.055 627.572 376.1C627.572 377.145 627.4 378.041 627.054 378.788C626.718 379.525 626.256 380.095 625.668 380.496C625.08 380.888 624.408 381.084 623.652 381.084ZM623.652 380.16C624.231 380.16 624.735 380.006 625.164 379.698C625.594 379.381 625.93 378.923 626.172 378.326C626.415 377.719 626.536 376.977 626.536 376.1C626.536 375.223 626.415 374.485 626.172 373.888C625.93 373.281 625.594 372.824 625.164 372.516C624.735 372.199 624.231 372.04 623.652 372.04C623.092 372.04 622.593 372.199 622.154 372.516C621.716 372.824 621.375 373.281 621.132 373.888C620.89 374.485 620.768 375.223 620.768 376.1C620.768 376.977 620.89 377.719 621.132 378.326C621.375 378.923 621.716 379.381 622.154 379.698C622.593 380.006 623.092 380.16 623.652 380.16Z" fill="black"/>
<path d="M638.956 336.084C638.2 336.084 637.528 335.888 636.94 335.496C636.352 335.095 635.89 334.525 635.554 333.788C635.218 333.041 635.05 332.145 635.05 331.1C635.05 330.055 635.218 329.163 635.554 328.426C635.89 327.679 636.352 327.11 636.94 326.718C637.528 326.317 638.2 326.116 638.956 326.116C639.712 326.116 640.384 326.317 640.972 326.718C641.56 327.11 642.022 327.679 642.358 328.426C642.703 329.163 642.876 330.055 642.876 331.1C642.876 332.145 642.703 333.041 642.358 333.788C642.022 334.525 641.56 335.095 640.972 335.496C640.384 335.888 639.712 336.084 638.956 336.084ZM638.956 335.16C639.534 335.16 640.038 335.006 640.468 334.698C640.897 334.381 641.233 333.923 641.476 333.326C641.718 332.719 641.84 331.977 641.84 331.1C641.84 330.223 641.718 329.485 641.476 328.888C641.233 328.281 640.897 327.824 640.468 327.516C640.038 327.199 639.534 327.04 638.956 327.04C638.396 327.04 637.896 327.199 637.458 327.516C637.019 327.824 636.678 328.281 636.436 328.888C636.193 329.485 636.072 330.223 636.072 331.1C636.072 331.977 636.193 332.719 636.436 333.326C636.678 333.923 637.019 334.381 637.458 334.698C637.896 335.006 638.396 335.16 638.956 335.16ZM645.635 336L652.327 326.2H653.153L646.461 336H645.635ZM646.391 331.45C645.953 331.45 645.565 331.343 645.229 331.128C644.893 330.904 644.632 330.591 644.445 330.19C644.268 329.789 644.179 329.322 644.179 328.79C644.179 328.258 644.268 327.791 644.445 327.39C644.632 326.989 644.893 326.681 645.229 326.466C645.565 326.242 645.953 326.13 646.391 326.13C646.83 326.13 647.213 326.242 647.539 326.466C647.875 326.681 648.137 326.989 648.323 327.39C648.51 327.791 648.603 328.258 648.603 328.79C648.603 329.322 648.51 329.789 648.323 330.19C648.137 330.591 647.875 330.904 647.539 331.128C647.213 331.343 646.83 331.45 646.391 331.45ZM646.391 330.82C646.849 330.82 647.213 330.643 647.483 330.288C647.763 329.924 647.903 329.425 647.903 328.79C647.903 328.155 647.763 327.661 647.483 327.306C647.213 326.942 646.849 326.76 646.391 326.76C645.925 326.76 645.556 326.942 645.285 327.306C645.015 327.661 644.879 328.155 644.879 328.79C644.879 329.425 645.015 329.924 645.285 330.288C645.556 330.643 645.925 330.82 646.391 330.82ZM652.397 336.07C651.968 336.07 651.585 335.963 651.249 335.748C650.913 335.524 650.652 335.211 650.465 334.81C650.279 334.409 650.185 333.942 650.185 333.41C650.185 332.878 650.279 332.411 650.465 332.01C650.652 331.609 650.913 331.301 651.249 331.086C651.585 330.862 651.968 330.75 652.397 330.75C652.845 330.75 653.233 330.862 653.559 331.086C653.895 331.301 654.152 331.609 654.329 332.01C654.516 332.411 654.609 332.878 654.609 333.41C654.609 333.942 654.516 334.409 654.329 334.81C654.152 335.211 653.895 335.524 653.559 335.748C653.233 335.963 652.845 336.07 652.397 336.07ZM652.397 335.44C652.855 335.44 653.219 335.263 653.489 334.908C653.769 334.544 653.909 334.045 653.909 333.41C653.909 332.775 653.769 332.281 653.489 331.926C653.219 331.562 652.855 331.38 652.397 331.38C651.94 331.38 651.571 331.562 651.291 331.926C651.021 332.281 650.885 332.775 650.885 333.41C650.885 334.045 651.021 334.544 651.291 334.908C651.571 335.263 651.94 335.44 652.397 335.44Z" fill="black"/>
<path d="M632.188 268.084C631.32 268.084 630.587 267.893 629.99 267.51C629.393 267.118 628.94 266.558 628.632 265.83C628.324 265.093 628.17 264.211 628.17 263.184C628.17 262.073 628.357 261.145 628.73 260.398C629.113 259.642 629.64 259.073 630.312 258.69C630.984 258.307 631.763 258.116 632.65 258.116C633.089 258.116 633.509 258.158 633.91 258.242C634.311 258.326 634.666 258.461 634.974 258.648L634.568 259.46C634.316 259.292 634.027 259.175 633.7 259.11C633.373 259.035 633.028 258.998 632.664 258.998C631.609 258.998 630.765 259.334 630.13 260.006C629.505 260.678 629.192 261.681 629.192 263.016C629.192 263.221 629.201 263.478 629.22 263.786C629.248 264.085 629.304 264.383 629.388 264.682L629.038 264.416C629.141 263.931 629.341 263.52 629.64 263.184C629.939 262.839 630.312 262.577 630.76 262.4C631.208 262.223 631.698 262.134 632.23 262.134C632.883 262.134 633.457 262.255 633.952 262.498C634.447 262.741 634.834 263.081 635.114 263.52C635.394 263.959 635.534 264.477 635.534 265.074C635.534 265.681 635.389 266.213 635.1 266.67C634.811 267.118 634.409 267.468 633.896 267.72C633.392 267.963 632.823 268.084 632.188 268.084ZM632.146 267.23C632.613 267.23 633.023 267.146 633.378 266.978C633.742 266.801 634.027 266.553 634.232 266.236C634.437 265.909 634.54 265.531 634.54 265.102C634.54 264.458 634.316 263.945 633.868 263.562C633.429 263.179 632.832 262.988 632.076 262.988C631.572 262.988 631.133 263.081 630.76 263.268C630.387 263.455 630.093 263.711 629.878 264.038C629.663 264.355 629.556 264.719 629.556 265.13C629.556 265.485 629.654 265.825 629.85 266.152C630.046 266.469 630.335 266.731 630.718 266.936C631.11 267.132 631.586 267.23 632.146 267.23ZM640.607 268.084C639.851 268.084 639.179 267.888 638.591 267.496C638.003 267.095 637.541 266.525 637.205 265.788C636.869 265.041 636.701 264.145 636.701 263.1C636.701 262.055 636.869 261.163 637.205 260.426C637.541 259.679 638.003 259.11 638.591 258.718C639.179 258.317 639.851 258.116 640.607 258.116C641.363 258.116 642.035 258.317 642.623 258.718C643.211 259.11 643.673 259.679 644.009 260.426C644.354 261.163 644.527 262.055 644.527 263.1C644.527 264.145 644.354 265.041 644.009 265.788C643.673 266.525 643.211 267.095 642.623 267.496C642.035 267.888 641.363 268.084 640.607 268.084ZM640.607 267.16C641.186 267.16 641.69 267.006 642.119 266.698C642.548 266.381 642.884 265.923 643.127 265.326C643.37 264.719 643.491 263.977 643.491 263.1C643.491 262.223 643.37 261.485 643.127 260.888C642.884 260.281 642.548 259.824 642.119 259.516C641.69 259.199 641.186 259.04 640.607 259.04C640.047 259.04 639.548 259.199 639.109 259.516C638.67 259.824 638.33 260.281 638.087 260.888C637.844 261.485 637.723 262.223 637.723 263.1C637.723 263.977 637.844 264.719 638.087 265.326C638.33 265.923 638.67 266.381 639.109 266.698C639.548 267.006 640.047 267.16 640.607 267.16ZM647.287 268L653.979 258.2H654.805L648.113 268H647.287ZM648.043 263.45C647.604 263.45 647.217 263.343 646.881 263.128C646.545 262.904 646.283 262.591 646.097 262.19C645.919 261.789 645.831 261.322 645.831 260.79C645.831 260.258 645.919 259.791 646.097 259.39C646.283 258.989 646.545 258.681 646.881 258.466C647.217 258.242 647.604 258.13 648.043 258.13C648.481 258.13 648.864 258.242 649.191 258.466C649.527 258.681 649.788 258.989 649.975 259.39C650.161 259.791 650.255 260.258 650.255 260.79C650.255 261.322 650.161 261.789 649.975 262.19C649.788 262.591 649.527 262.904 649.191 263.128C648.864 263.343 648.481 263.45 648.043 263.45ZM648.043 262.82C648.5 262.82 648.864 262.643 649.135 262.288C649.415 261.924 649.555 261.425 649.555 260.79C649.555 260.155 649.415 259.661 649.135 259.306C648.864 258.942 648.5 258.76 648.043 258.76C647.576 258.76 647.207 258.942 646.937 259.306C646.666 259.661 646.531 260.155 646.531 260.79C646.531 261.425 646.666 261.924 646.937 262.288C647.207 262.643 647.576 262.82 648.043 262.82ZM654.049 268.07C653.619 268.07 653.237 267.963 652.901 267.748C652.565 267.524 652.303 267.211 652.117 266.81C651.93 266.409 651.837 265.942 651.837 265.41C651.837 264.878 651.93 264.411 652.117 264.01C652.303 263.609 652.565 263.301 652.901 263.086C653.237 262.862 653.619 262.75 654.049 262.75C654.497 262.75 654.884 262.862 655.211 263.086C655.547 263.301 655.803 263.609 655.981 264.01C656.167 264.411 656.261 264.878 656.261 265.41C656.261 265.942 656.167 266.409 655.981 266.81C655.803 267.211 655.547 267.524 655.211 267.748C654.884 267.963 654.497 268.07 654.049 268.07ZM654.049 267.44C654.506 267.44 654.87 267.263 655.141 266.908C655.421 266.544 655.561 266.045 655.561 265.41C655.561 264.775 655.421 264.281 655.141 263.926C654.87 263.562 654.506 263.38 654.049 263.38C653.591 263.38 653.223 263.562 652.943 263.926C652.672 264.281 652.537 264.775 652.537 265.41C652.537 266.045 652.672 266.544 652.943 266.908C653.223 267.263 653.591 267.44 654.049 267.44Z" fill="black"/>
<path d="M625.75 184V174.62L626.198 175.096H623.44V174.2H626.758V184H625.75ZM628.919 184V183.286L632.993 179.296C633.366 178.932 633.646 178.615 633.833 178.344C634.019 178.064 634.145 177.803 634.211 177.56C634.276 177.317 634.309 177.089 634.309 176.874C634.309 176.305 634.113 175.857 633.721 175.53C633.338 175.203 632.769 175.04 632.013 175.04C631.434 175.04 630.921 175.129 630.473 175.306C630.034 175.483 629.656 175.759 629.339 176.132L628.625 175.516C629.007 175.068 629.497 174.723 630.095 174.48C630.692 174.237 631.359 174.116 632.097 174.116C632.759 174.116 633.333 174.223 633.819 174.438C634.304 174.643 634.677 174.947 634.939 175.348C635.209 175.749 635.345 176.221 635.345 176.762C635.345 177.079 635.298 177.392 635.205 177.7C635.121 178.008 634.962 178.335 634.729 178.68C634.505 179.016 634.173 179.399 633.735 179.828L629.997 183.496L629.717 183.104H635.793V184H628.919ZM640.936 184.084C640.18 184.084 639.508 183.888 638.92 183.496C638.332 183.095 637.87 182.525 637.534 181.788C637.198 181.041 637.03 180.145 637.03 179.1C637.03 178.055 637.198 177.163 637.534 176.426C637.87 175.679 638.332 175.11 638.92 174.718C639.508 174.317 640.18 174.116 640.936 174.116C641.692 174.116 642.364 174.317 642.952 174.718C643.54 175.11 644.002 175.679 644.338 176.426C644.684 177.163 644.856 178.055 644.856 179.1C644.856 180.145 644.684 181.041 644.338 181.788C644.002 182.525 643.54 183.095 642.952 183.496C642.364 183.888 641.692 184.084 640.936 184.084ZM640.936 183.16C641.515 183.16 642.019 183.006 642.448 182.698C642.878 182.381 643.214 181.923 643.456 181.326C643.699 180.719 643.82 179.977 643.82 179.1C643.82 178.223 643.699 177.485 643.456 176.888C643.214 176.281 642.878 175.824 642.448 175.516C642.019 175.199 641.515 175.04 640.936 175.04C640.376 175.04 639.877 175.199 639.438 175.516C639 175.824 638.659 176.281 638.416 176.888C638.174 177.485 638.052 178.223 638.052 179.1C638.052 179.977 638.174 180.719 638.416 181.326C638.659 181.923 639 182.381 639.438 182.698C639.877 183.006 640.376 183.16 640.936 183.16ZM647.616 184L654.308 174.2H655.134L648.442 184H647.616ZM648.372 179.45C647.933 179.45 647.546 179.343 647.21 179.128C646.874 178.904 646.612 178.591 646.426 178.19C646.248 177.789 646.16 177.322 646.16 176.79C646.16 176.258 646.248 175.791 646.426 175.39C646.612 174.989 646.874 174.681 647.21 174.466C647.546 174.242 647.933 174.13 648.372 174.13C648.81 174.13 649.193 174.242 649.52 174.466C649.856 174.681 650.117 174.989 650.304 175.39C650.49 175.791 650.584 176.258 650.584 176.79C650.584 177.322 650.49 177.789 650.304 178.19C650.117 178.591 649.856 178.904 649.52 179.128C649.193 179.343 648.81 179.45 648.372 179.45ZM648.372 178.82C648.829 178.82 649.193 178.643 649.464 178.288C649.744 177.924 649.884 177.425 649.884 176.79C649.884 176.155 649.744 175.661 649.464 175.306C649.193 174.942 648.829 174.76 648.372 174.76C647.905 174.76 647.536 174.942 647.266 175.306C646.995 175.661 646.86 176.155 646.86 176.79C646.86 177.425 646.995 177.924 647.266 178.288C647.536 178.643 647.905 178.82 648.372 178.82ZM654.378 184.07C653.948 184.07 653.566 183.963 653.23 183.748C652.894 183.524 652.632 183.211 652.446 182.81C652.259 182.409 652.166 181.942 652.166 181.41C652.166 180.878 652.259 180.411 652.446 180.01C652.632 179.609 652.894 179.301 653.23 179.086C653.566 178.862 653.948 178.75 654.378 178.75C654.826 178.75 655.213 178.862 655.54 179.086C655.876 179.301 656.132 179.609 656.31 180.01C656.496 180.411 656.59 180.878 656.59 181.41C656.59 181.942 656.496 182.409 656.31 182.81C656.132 183.211 655.876 183.524 655.54 183.748C655.213 183.963 654.826 184.07 654.378 184.07ZM654.378 183.44C654.835 183.44 655.199 183.263 655.47 182.908C655.75 182.544 655.89 182.045 655.89 181.41C655.89 180.775 655.75 180.281 655.47 179.926C655.199 179.562 654.835 179.38 654.378 179.38C653.92 179.38 653.552 179.562 653.272 179.926C653.001 180.281 652.866 180.775 652.866 181.41C652.866 182.045 653.001 182.544 653.272 182.908C653.552 183.263 653.92 183.44 654.378 183.44Z" fill="black"/>
<path d="M624.374 87.0002V77.6202L624.822 78.0962H622.064V77.2002H625.382V87.0002H624.374ZM631.449 87.0842C630.665 87.0842 629.988 86.9722 629.419 86.7482C628.859 86.5242 628.425 86.2022 628.117 85.7822C627.818 85.3532 627.669 84.8492 627.669 84.2702C627.669 83.7102 627.813 83.2342 628.103 82.8422C628.401 82.4412 628.831 82.1332 629.391 81.9182C629.96 81.7032 630.646 81.5962 631.449 81.5962C632.242 81.5962 632.923 81.7032 633.493 81.9182C634.062 82.1332 634.496 82.4412 634.795 82.8422C635.103 83.2342 635.257 83.7102 635.257 84.2702C635.257 84.8492 635.103 85.3532 634.795 85.7822C634.487 86.2022 634.048 86.5242 633.479 86.7482C632.909 86.9722 632.233 87.0842 631.449 87.0842ZM631.449 86.2302C632.317 86.2302 632.993 86.0532 633.479 85.6982C633.973 85.3432 634.221 84.8632 634.221 84.2562C634.221 83.6492 633.973 83.1732 633.479 82.8282C632.993 82.4732 632.317 82.2962 631.449 82.2962C630.581 82.2962 629.904 82.4732 629.419 82.8282C628.933 83.1732 628.691 83.6492 628.691 84.2562C628.691 84.8632 628.933 85.3432 629.419 85.6982C629.904 86.0532 630.581 86.2302 631.449 86.2302ZM631.449 82.1702C630.721 82.1702 630.1 82.0722 629.587 81.8762C629.083 81.6802 628.695 81.4002 628.425 81.0362C628.154 80.6632 628.019 80.2192 628.019 79.7062C628.019 79.1652 628.159 78.7032 628.439 78.3202C628.728 77.9282 629.129 77.6292 629.643 77.4242C630.156 77.2192 630.758 77.1162 631.449 77.1162C632.139 77.1162 632.741 77.2192 633.255 77.4242C633.777 77.6292 634.183 77.9282 634.473 78.3202C634.762 78.7032 634.907 79.1652 634.907 79.7062C634.907 80.2192 634.771 80.6632 634.501 81.0362C634.23 81.4002 633.833 81.6802 633.311 81.8762C632.797 82.0722 632.177 82.1702 631.449 82.1702ZM631.449 81.4982C632.214 81.4982 632.811 81.3392 633.241 81.0222C633.67 80.7052 633.885 80.2802 633.885 79.7482C633.885 79.1882 633.661 78.7542 633.213 78.4462C632.774 78.1292 632.186 77.9702 631.449 77.9702C630.711 77.9702 630.123 78.1292 629.685 78.4462C629.246 78.7542 629.027 79.1832 629.027 79.7342C629.027 80.2752 629.237 80.7052 629.657 81.0222C630.086 81.3392 630.683 81.4982 631.449 81.4982ZM640.558 87.0842C639.802 87.0842 639.13 86.8882 638.542 86.4962C637.954 86.0952 637.492 85.5252 637.156 84.7882C636.82 84.0412 636.652 83.1452 636.652 82.1002C636.652 81.0552 636.82 80.1632 637.156 79.4262C637.492 78.6792 637.954 78.1102 638.542 77.7182C639.13 77.3172 639.802 77.1162 640.558 77.1162C641.314 77.1162 641.986 77.3172 642.574 77.7182C643.162 78.1102 643.624 78.6792 643.96 79.4262C644.306 80.1632 644.478 81.0552 644.478 82.1002C644.478 83.1452 644.306 84.0412 643.96 84.7882C643.624 85.5252 643.162 86.0952 642.574 86.4962C641.986 86.8882 641.314 87.0842 640.558 87.0842ZM640.558 86.1602C641.137 86.1602 641.641 86.0062 642.07 85.6982C642.5 85.3812 642.836 84.9232 643.078 84.3262C643.321 83.7192 643.442 82.9772 643.442 82.1002C643.442 81.2232 643.321 80.4852 643.078 79.8882C642.836 79.2812 642.5 78.8242 642.07 78.5162C641.641 78.1992 641.137 78.0402 640.558 78.0402C639.998 78.0402 639.499 78.1992 639.06 78.5162C638.622 78.8242 638.281 79.2812 638.038 79.8882C637.796 80.4852 637.674 81.2232 637.674 82.1002C637.674 82.9772 637.796 83.7192 638.038 84.3262C638.281 84.9232 638.622 85.3812 639.06 85.6982C639.499 86.0062 639.998 86.1602 640.558 86.1602ZM647.238 87.0002L653.93 77.2002H654.756L648.064 87.0002H647.238ZM647.994 82.4502C647.555 82.4502 647.168 82.3432 646.832 82.1282C646.496 81.9042 646.235 81.5912 646.048 81.1902C645.871 80.7892 645.782 80.3222 645.782 79.7902C645.782 79.2582 645.871 78.7912 646.048 78.3902C646.235 77.9892 646.496 77.6812 646.832 77.4662C647.168 77.2422 647.555 77.1302 647.994 77.1302C648.433 77.1302 648.815 77.2422 649.142 77.4662C649.478 77.6812 649.739 77.9892 649.926 78.3902C650.113 78.7912 650.206 79.2582 650.206 79.7902C650.206 80.3222 650.113 80.7892 649.926 81.1902C649.739 81.5912 649.478 81.9042 649.142 82.1282C648.815 82.3432 648.433 82.4502 647.994 82.4502ZM647.994 81.8202C648.451 81.8202 648.815 81.6432 649.086 81.2882C649.366 80.9242 649.506 80.4252 649.506 79.7902C649.506 79.1552 649.366 78.6612 649.086 78.3062C648.815 77.9422 648.451 77.7602 647.994 77.7602C647.527 77.7602 647.159 77.9422 646.888 78.3062C646.617 78.6612 646.482 79.1552 646.482 79.7902C646.482 80.4252 646.617 80.9242 646.888 81.2882C647.159 81.6432 647.527 81.8202 647.994 81.8202ZM654 87.0702C653.571 87.0702 653.188 86.9632 652.852 86.7482C652.516 86.5242 652.255 86.2112 652.068 85.8102C651.881 85.4092 651.788 84.9422 651.788 84.4102C651.788 83.8782 651.881 83.4112 652.068 83.0102C652.255 82.6092 652.516 82.3012 652.852 82.0862C653.188 81.8622 653.571 81.7502 654 81.7502C654.448 81.7502 654.835 81.8622 655.162 82.0862C655.498 82.3012 655.755 82.6092 655.932 83.0102C656.119 83.4112 656.212 83.8782 656.212 84.4102C656.212 84.9422 656.119 85.4092 655.932 85.8102C655.755 86.2112 655.498 86.5242 655.162 86.7482C654.835 86.9632 654.448 87.0702 654 87.0702ZM654 86.4402C654.457 86.4402 654.821 86.2632 655.092 85.9082C655.372 85.5442 655.512 85.0452 655.512 84.4102C655.512 83.7752 655.372 83.2812 655.092 82.9262C654.821 82.5622 654.457 82.3802 654 82.3802C653.543 82.3802 653.174 82.5622 652.894 82.9262C652.623 83.2812 652.488 83.7752 652.488 84.4102C652.488 85.0452 652.623 85.5442 652.894 85.9082C653.174 86.2632 653.543 86.4402 654 86.4402Z" fill="black"/>
<path d="M88.7501 361C87.3742 339.167 106.363 291.7 193.324 276.5C302.025 257.5 459.574 285.5 541.444 216C606.94 160.4 609.096 99.833 601.986 76.5" stroke="black" stroke-width="3"/>
<path d="M93.9061 196.32V162.48H97.506V196.32H93.9061ZM95.2021 192.432C93.1861 192.432 91.2541 192.168 89.4061 191.64C87.5581 191.088 86.0701 190.38 84.9421 189.516L86.9221 185.124C88.0021 185.892 89.2741 186.528 90.7381 187.032C92.2261 187.512 93.7261 187.752 95.2381 187.752C96.39 187.752 97.314 187.644 98.01 187.428C98.73 187.188 99.258 186.864 99.594 186.456C99.93 186.048 100.098 185.58 100.098 185.052C100.098 184.38 99.834 183.852 99.306 183.468C98.778 183.06 98.082 182.736 97.218 182.496C96.354 182.232 95.3941 181.992 94.3381 181.776C93.3061 181.536 92.2621 181.248 91.2061 180.912C90.1741 180.576 89.2261 180.144 88.3621 179.616C87.4981 179.088 86.7901 178.392 86.2381 177.528C85.7101 176.664 85.4461 175.56 85.4461 174.216C85.4461 172.776 85.8301 171.468 86.5981 170.292C87.3901 169.092 88.5661 168.144 90.1261 167.448C91.7101 166.728 93.6901 166.368 96.066 166.368C97.65 166.368 99.21 166.56 100.746 166.944C102.282 167.304 103.638 167.856 104.814 168.6L103.014 173.028C101.838 172.356 100.662 171.864 99.486 171.552C98.31 171.216 97.158 171.048 96.03 171.048C94.9021 171.048 93.9781 171.18 93.2581 171.444C92.5381 171.708 92.0221 172.056 91.7101 172.488C91.3981 172.896 91.2421 173.376 91.2421 173.928C91.2421 174.576 91.5061 175.104 92.0341 175.512C92.5621 175.896 93.2581 176.208 94.1221 176.448C94.9861 176.688 95.9341 176.928 96.966 177.168C98.022 177.408 99.066 177.684 100.098 177.996C101.154 178.308 102.114 178.728 102.978 179.256C103.842 179.784 104.538 180.48 105.066 181.344C105.618 182.208 105.894 183.3 105.894 184.62C105.894 186.036 105.498 187.332 104.706 188.508C103.914 189.684 102.726 190.632 101.142 191.352C99.582 192.072 97.602 192.432 95.2021 192.432ZM108.359 186.708V182.784L120.239 166.8H126.359L114.731 182.784L111.887 181.956H131.723V186.708H108.359ZM121.931 192V186.708L122.111 181.956V177.24H127.619V192H121.931ZM134.386 197.544L136.762 188.904L137.554 192.144C136.522 192.144 135.67 191.844 134.998 191.244C134.35 190.644 134.026 189.816 134.026 188.76C134.026 187.704 134.362 186.864 135.034 186.24C135.706 185.616 136.534 185.304 137.518 185.304C138.526 185.304 139.354 185.628 140.002 186.276C140.65 186.9 140.974 187.728 140.974 188.76C140.974 189.072 140.95 189.384 140.902 189.696C140.854 189.984 140.758 190.344 140.614 190.776C140.494 191.184 140.29 191.712 140.002 192.36L137.95 197.544H134.386ZM152.16 192.432C150.408 192.432 148.668 192.204 146.94 191.748C145.236 191.268 143.772 190.596 142.548 189.732L144.852 185.268C145.812 185.964 146.916 186.516 148.164 186.924C149.436 187.332 150.72 187.536 152.016 187.536C153.48 187.536 154.632 187.248 155.472 186.672C156.312 186.096 156.732 185.292 156.732 184.26C156.732 183.612 156.564 183.036 156.228 182.532C155.892 182.028 155.292 181.644 154.428 181.38C153.588 181.116 152.4 180.984 150.864 180.984H144.42L145.716 166.8H161.088V171.48H147.804L150.828 168.816L149.928 178.932L146.904 176.268H152.232C154.728 176.268 156.732 176.616 158.244 177.312C159.78 177.984 160.896 178.908 161.592 180.084C162.288 181.26 162.636 182.592 162.636 184.08C162.636 185.568 162.264 186.948 161.52 188.22C160.776 189.468 159.624 190.488 158.064 191.28C156.528 192.048 154.56 192.432 152.16 192.432ZM175.802 192.432C173.738 192.432 171.89 191.928 170.258 190.92C168.626 189.888 167.342 188.4 166.406 186.456C165.47 184.512 165.002 182.16 165.002 179.4C165.002 176.64 165.47 174.288 166.406 172.344C167.342 170.4 168.626 168.924 170.258 167.916C171.89 166.884 173.738 166.368 175.802 166.368C177.89 166.368 179.738 166.884 181.346 167.916C182.978 168.924 184.262 170.4 185.198 172.344C186.134 174.288 186.602 176.64 186.602 179.4C186.602 182.16 186.134 184.512 185.198 186.456C184.262 188.4 182.978 189.888 181.346 190.92C179.738 191.928 177.89 192.432 175.802 192.432ZM175.802 187.5C176.786 187.5 177.638 187.224 178.358 186.672C179.102 186.12 179.678 185.244 180.086 184.044C180.518 182.844 180.734 181.296 180.734 179.4C180.734 177.504 180.518 175.956 180.086 174.756C179.678 173.556 179.102 172.68 178.358 172.128C177.638 171.576 176.786 171.3 175.802 171.3C174.842 171.3 173.99 171.576 173.246 172.128C172.526 172.68 171.95 173.556 171.518 174.756C171.11 175.956 170.906 177.504 170.906 179.4C170.906 181.296 171.11 182.844 171.518 184.044C171.95 185.244 172.526 186.12 173.246 186.672C173.99 187.224 174.842 187.5 175.802 187.5ZM200.236 192.432C198.172 192.432 196.324 191.928 194.692 190.92C193.06 189.888 191.776 188.4 190.84 186.456C189.904 184.512 189.436 182.16 189.436 179.4C189.436 176.64 189.904 174.288 190.84 172.344C191.776 170.4 193.06 168.924 194.692 167.916C196.324 166.884 198.172 166.368 200.236 166.368C202.324 166.368 204.172 166.884 205.78 167.916C207.412 168.924 208.696 170.4 209.632 172.344C210.568 174.288 211.036 176.64 211.036 179.4C211.036 182.16 210.568 184.512 209.632 186.456C208.696 188.4 207.412 189.888 205.78 190.92C204.172 191.928 202.324 192.432 200.236 192.432ZM200.236 187.5C201.22 187.5 202.072 187.224 202.792 186.672C203.536 186.12 204.112 185.244 204.52 184.044C204.952 182.844 205.168 181.296 205.168 179.4C205.168 177.504 204.952 175.956 204.52 174.756C204.112 173.556 203.536 172.68 202.792 172.128C202.072 171.576 201.22 171.3 200.236 171.3C199.276 171.3 198.424 171.576 197.68 172.128C196.96 172.68 196.384 173.556 195.952 174.756C195.544 175.956 195.34 177.504 195.34 179.4C195.34 181.296 195.544 182.844 195.952 184.044C196.384 185.244 196.96 186.12 197.68 186.672C198.424 187.224 199.276 187.5 200.236 187.5Z" fill="black"/>
<path d="M619.186 224H547.636V243H619.186V224Z" fill="#24252A"/>
<path d="M575.773 239.084C574.905 239.084 574.173 238.893 573.575 238.51C572.978 238.118 572.525 237.558 572.217 236.83C571.909 236.093 571.755 235.211 571.755 234.184C571.755 233.073 571.942 232.145 572.315 231.398C572.698 230.642 573.225 230.073 573.897 229.69C574.569 229.307 575.349 229.116 576.235 229.116C576.674 229.116 577.094 229.158 577.495 229.242C577.897 229.326 578.251 229.461 578.559 229.648L578.153 230.46C577.901 230.292 577.612 230.175 577.285 230.11C576.959 230.035 576.613 229.998 576.249 229.998C575.195 229.998 574.35 230.334 573.715 231.006C573.09 231.678 572.777 232.681 572.777 234.016C572.777 234.221 572.787 234.478 572.805 234.786C572.833 235.085 572.889 235.383 572.973 235.682L572.623 235.416C572.726 234.931 572.927 234.52 573.225 234.184C573.524 233.839 573.897 233.577 574.345 233.4C574.793 233.223 575.283 233.134 575.815 233.134C576.469 233.134 577.043 233.255 577.537 233.498C578.032 233.741 578.419 234.081 578.699 234.52C578.979 234.959 579.119 235.477 579.119 236.074C579.119 236.681 578.975 237.213 578.685 237.67C578.396 238.118 577.995 238.468 577.481 238.72C576.977 238.963 576.408 239.084 575.773 239.084ZM575.731 238.23C576.198 238.23 576.609 238.146 576.963 237.978C577.327 237.801 577.612 237.553 577.817 237.236C578.023 236.909 578.125 236.531 578.125 236.102C578.125 235.458 577.901 234.945 577.453 234.562C577.015 234.179 576.417 233.988 575.661 233.988C575.157 233.988 574.719 234.081 574.345 234.268C573.972 234.455 573.678 234.711 573.463 235.038C573.249 235.355 573.141 235.719 573.141 236.13C573.141 236.485 573.239 236.825 573.435 237.152C573.631 237.469 573.921 237.731 574.303 237.936C574.695 238.132 575.171 238.23 575.731 238.23ZM583.381 239.084C582.681 239.084 582.013 238.972 581.379 238.748C580.744 238.515 580.24 238.207 579.867 237.824L580.357 237.026C580.665 237.353 581.085 237.623 581.617 237.838C582.158 238.053 582.741 238.16 583.367 238.16C584.197 238.16 584.827 237.978 585.257 237.614C585.695 237.241 585.915 236.755 585.915 236.158C585.915 235.738 585.812 235.379 585.607 235.08C585.411 234.772 585.075 234.534 584.599 234.366C584.123 234.198 583.469 234.114 582.639 234.114H580.553L581.057 229.2H586.419V230.096H581.463L581.981 229.606L581.547 233.722L581.029 233.218H582.863C583.852 233.218 584.645 233.339 585.243 233.582C585.84 233.825 586.269 234.165 586.531 234.604C586.801 235.033 586.937 235.537 586.937 236.116C586.937 236.667 586.806 237.171 586.545 237.628C586.283 238.076 585.891 238.431 585.369 238.692C584.846 238.953 584.183 239.084 583.381 239.084ZM589.396 239L596.088 229.2H596.914L590.222 239H589.396ZM590.152 234.45C589.713 234.45 589.326 234.343 588.99 234.128C588.654 233.904 588.392 233.591 588.206 233.19C588.028 232.789 587.94 232.322 587.94 231.79C587.94 231.258 588.028 230.791 588.206 230.39C588.392 229.989 588.654 229.681 588.99 229.466C589.326 229.242 589.713 229.13 590.152 229.13C590.59 229.13 590.973 229.242 591.3 229.466C591.636 229.681 591.897 229.989 592.084 230.39C592.27 230.791 592.364 231.258 592.364 231.79C592.364 232.322 592.27 232.789 592.084 233.19C591.897 233.591 591.636 233.904 591.3 234.128C590.973 234.343 590.59 234.45 590.152 234.45ZM590.152 233.82C590.609 233.82 590.973 233.643 591.244 233.288C591.524 232.924 591.664 232.425 591.664 231.79C591.664 231.155 591.524 230.661 591.244 230.306C590.973 229.942 590.609 229.76 590.152 229.76C589.685 229.76 589.316 229.942 589.046 230.306C588.775 230.661 588.64 231.155 588.64 231.79C588.64 232.425 588.775 232.924 589.046 233.288C589.316 233.643 589.685 233.82 590.152 233.82ZM596.158 239.07C595.728 239.07 595.346 238.963 595.01 238.748C594.674 238.524 594.412 238.211 594.226 237.81C594.039 237.409 593.946 236.942 593.946 236.41C593.946 235.878 594.039 235.411 594.226 235.01C594.412 234.609 594.674 234.301 595.01 234.086C595.346 233.862 595.728 233.75 596.158 233.75C596.606 233.75 596.993 233.862 597.32 234.086C597.656 234.301 597.912 234.609 598.09 235.01C598.276 235.411 598.37 235.878 598.37 236.41C598.37 236.942 598.276 237.409 598.09 237.81C597.912 238.211 597.656 238.524 597.32 238.748C596.993 238.963 596.606 239.07 596.158 239.07ZM596.158 238.44C596.615 238.44 596.979 238.263 597.25 237.908C597.53 237.544 597.67 237.045 597.67 236.41C597.67 235.775 597.53 235.281 597.25 234.926C596.979 234.562 596.615 234.38 596.158 234.38C595.7 234.38 595.332 234.562 595.052 234.926C594.781 235.281 594.646 235.775 594.646 236.41C594.646 237.045 594.781 237.544 595.052 237.908C595.332 238.263 595.7 238.44 596.158 238.44Z" fill="white"/>
<path d="M536.732 233.651L547.992 228.775L548.173 238.3L536.732 233.651Z" fill="#24252A"/>
<path d="M134.202 102.362H129.87L127.681 96.1218C127.406 95.3368 126.304 94.8618 125.225 95.0618L120.233 95.9868C119.896 96.0498 119.693 96.2988 119.779 96.5428C119.865 96.7878 120.207 96.9358 120.544 96.8738L125.536 95.9478C125.943 95.8728 126.358 96.0518 126.461 96.3478L126.704 97.0388L93.7147 103.152L93.4722 102.461C93.422 102.318 93.4515 102.169 93.5552 102.042C93.659 101.915 93.8246 101.825 94.0216 101.789L116.713 97.5828C117.05 97.5208 117.253 97.2718 117.167 97.0268C117.081 96.7828 116.739 96.6348 116.402 96.6968L93.7106 100.902C92.6317 101.102 91.9777 101.903 92.2528 102.687L96.906 115.949C97.139 116.612 97.962 117.054 98.863 117.054C99.028 117.054 99.195 117.039 99.362 117.008L99.659 116.953V117.516C99.659 118.325 100.565 118.983 101.679 118.983H134.202C135.315 118.983 136.221 118.325 136.221 117.516V103.83C136.221 103.02 135.315 102.362 134.202 102.362ZM99.66 116.009L99.051 116.122C98.644 116.198 98.229 116.019 98.125 115.723L95.2771 107.605L99.66 106.793V116.009ZM99.66 103.83V105.849L94.9663 106.719L94.0257 104.038L100.105 102.912C99.827 103.163 99.66 103.483 99.66 103.83ZM128.572 102.362H123.57L128.266 101.492L128.572 102.362ZM127.015 97.9248L127.955 100.606L118.478 102.362H103.072L127.015 97.9248ZM134.202 118.069H101.679C101.259 118.069 100.918 117.821 100.918 117.516V116.365V103.83C100.918 103.525 101.259 103.277 101.679 103.277H134.202C134.621 103.277 134.963 103.525 134.963 103.83V117.516C134.963 117.821 134.621 118.069 134.202 118.069Z" fill="white"/>
<path d="M117.245 113.618H103.536C103.189 113.618 102.907 113.823 102.907 114.075C102.907 114.328 103.189 114.533 103.536 114.533H117.245C117.592 114.533 117.874 114.328 117.874 114.075C117.874 113.823 117.592 113.618 117.245 113.618Z" fill="white"/>
<path d="M127.729 105.578C126.825 105.578 125.989 105.79 125.308 106.148C124.605 105.779 123.763 105.578 122.884 105.578C120.6 105.578 118.742 106.928 118.742 108.588C118.742 110.248 120.6 111.599 122.884 111.599C123.763 111.599 124.605 111.398 125.308 111.028C125.989 111.387 126.826 111.599 127.729 111.599C130.013 111.599 131.871 110.248 131.871 108.588C131.871 106.928 130.013 105.578 127.729 105.578ZM123.592 108.731C123.593 108.743 123.594 108.754 123.595 108.766C123.598 108.805 123.602 108.843 123.607 108.881C123.608 108.89 123.609 108.899 123.611 108.907C123.687 109.442 123.956 109.944 124.394 110.374C123.943 110.576 123.423 110.684 122.884 110.684C121.294 110.684 120 109.744 120 108.588C120 107.433 121.294 106.493 122.884 106.493C123.423 106.493 123.943 106.601 124.394 106.803C123.956 107.232 123.687 107.734 123.611 108.269C123.609 108.278 123.608 108.287 123.607 108.296C123.602 108.334 123.598 108.372 123.595 108.41C123.594 108.422 123.593 108.434 123.592 108.445C123.589 108.493 123.587 108.54 123.587 108.588C123.587 108.636 123.589 108.684 123.592 108.731ZM127.729 110.684C126.942 110.684 126.228 110.453 125.707 110.08C125.696 110.073 125.686 110.065 125.675 110.057C125.651 110.039 125.627 110.021 125.604 110.003C125.598 109.998 125.591 109.993 125.585 109.988C125.558 109.966 125.531 109.943 125.505 109.921V109.92C125.093 109.558 124.846 109.094 124.846 108.588C124.846 108.083 125.093 107.619 125.505 107.256C125.531 107.233 125.558 107.211 125.585 107.189C125.591 107.184 125.598 107.179 125.604 107.174C125.627 107.155 125.651 107.137 125.675 107.119C125.686 107.112 125.696 107.104 125.707 107.096C126.228 106.723 126.942 106.493 127.729 106.493C129.319 106.493 130.613 107.433 130.613 108.588C130.613 109.744 129.319 110.684 127.729 110.684Z" fill="white"/>
<path d="M108.02 105.875H105.26C103.963 105.875 102.907 106.643 102.907 107.586V109.591C102.907 110.534 103.963 111.301 105.26 111.301H108.02C109.317 111.301 110.373 110.534 110.373 109.591V107.586C110.373 106.643 109.317 105.875 108.02 105.875ZM109.114 108.834H107.772C107.425 108.834 107.143 109.039 107.143 109.291C107.143 109.544 107.425 109.749 107.772 109.749H109.093C108.992 110.112 108.549 110.387 108.02 110.387H105.26C104.731 110.387 104.288 110.112 104.187 109.749H105.507C105.855 109.749 106.137 109.544 106.137 109.291C106.137 109.039 105.855 108.834 105.507 108.834H104.165V108.438H105.507C105.855 108.438 106.137 108.233 106.137 107.981C106.137 107.728 105.855 107.523 105.507 107.523H104.17C104.214 107.114 104.685 106.79 105.26 106.79H108.02C108.594 106.79 109.066 107.114 109.11 107.523H107.772C107.425 107.523 107.143 107.728 107.143 107.981C107.143 108.233 107.425 108.438 107.772 108.438H109.114V108.834Z" fill="white"/>
<path d="M132.017 115.63H110.111C109.763 115.63 109.482 115.835 109.482 116.088C109.482 116.34 109.763 116.545 110.111 116.545H132.017C132.365 116.545 132.646 116.34 132.646 116.088C132.646 115.835 132.365 115.63 132.017 115.63Z" fill="white"/>
<path d="M106.1 115.63H103.536C103.189 115.63 102.907 115.835 102.907 116.088C102.907 116.34 103.189 116.545 103.536 116.545H106.1C106.447 116.545 106.729 116.34 106.729 116.088C106.729 115.835 106.447 115.63 106.1 115.63Z" fill="white"/>
</svg>
