<svg width="32" height="32" viewBox="0 0 32 32" fill="none" xmlns="http://www.w3.org/2000/svg">
<g clip-path="url(#clip0_2_148)">
<path d="M26.2251 14.3836L23.7251 11.8841C23.5366 11.6956 23.23 11.6956 23.0415 11.8841C22.8526 12.073 22.8526 12.3792 23.0415 12.5677L24.7001 14.2259H17.6333V15.2259H24.6994L23.0415 16.8841C22.8526 17.073 22.8526 17.3792 23.0415 17.5677C23.1357 17.6619 23.2598 17.7093 23.3833 17.7093C23.5068 17.7093 23.6308 17.6619 23.7251 17.5677L26.2251 15.0672C26.316 14.9764 26.3667 14.8533 26.3667 14.7254C26.3667 14.597 26.316 14.4744 26.2251 14.3836Z" fill="black"/>
<path d="M20.1333 19.7261C19.857 19.7261 19.6333 19.9497 19.6333 20.2261V25.6211C19.6333 26.1426 19.2178 26.7261 18.6616 26.7261H15.6333V5.61957V4.93372L15.0096 4.66682L7.03825 1.28207L6.9079 1.22607H18.6616C19.2701 1.22607 19.6333 1.72217 19.6333 2.20167V9.72607C19.6333 10.0024 19.857 10.2261 20.1333 10.2261C20.4097 10.2261 20.6333 10.0024 20.6333 9.72607V2.20167C20.6333 1.11232 19.7491 0.226074 18.6616 0.226074H6.1333C5.8725 0.226074 5.66535 0.427524 5.64215 0.682274L5.6333 0.678474V0.726074V27.5169L14.2261 31.1701L15.6333 31.7736V30.2261V27.7261H18.6616C19.8409 27.7261 20.6333 26.6377 20.6333 25.6211V20.2261C20.6333 19.9497 20.4097 19.7261 20.1333 19.7261ZM14.6333 5.61957V30.2261L6.6333 26.8377V2.22607L14.6287 5.61247L14.6333 5.61442V5.61957Z" fill="black"/>
</g>
<defs>
<clipPath id="clip0_2_148">
<rect width="32" height="32" fill="white"/>
</clipPath>
</defs>
</svg>
