<svg width="181" height="181" viewBox="0 0 181 181" fill="none" xmlns="http://www.w3.org/2000/svg">
<g clip-path="url(#clip0_2_92)">
<path d="M90.5 154.501C120.46 154.501 147.048 144.031 163.521 127.913L148.674 127.972C134.656 139.772 114.131 147.196 90.8845 147.196C47.4977 147.196 13.6637 121.347 13.6637 89.4649C13.6637 52.6734 47.5273 31.7342 90.8845 31.7342C93.635 31.7342 95.8531 33.006 94.1969 35.4015C85.1765 46.2556 59.5053 81.1839 54.8324 88.7551C45.6049 103.661 45.8119 122.027 68.437 123.328H163.551C168.401 123.328 169.643 121.051 171.388 118.685C177.747 110.079 181 99.9937 180.97 89.4945C180.941 62.0783 161.658 41.5532 133.295 31.4385L128.918 38.0042C152.49 46.6993 168.076 64.2965 168.076 89.4945C168.076 93.8716 167.425 98.1305 166.212 102.241C165.148 105.79 163.107 108.807 159.203 108.807H83.3133C73.583 108.807 77.3391 98.7811 80.9473 93.9012C86.1821 84.5259 114.781 45.5458 121.672 38.2703C123.417 35.6086 128.356 30.078 121.554 27.9782C111.883 25.6713 101.413 24.4883 90.5 24.4883C40.518 24.4587 0.0295913 50.13 1.61687e-05 89.4649C-0.029559 129.184 40.518 154.501 90.5 154.501Z" fill="white" fill-opacity="0.67"/>
</g>
<defs>
<clipPath id="clip0_2_92">
<rect width="181" height="181" fill="white"/>
</clipPath>
</defs>
</svg>
