<svg width="32" height="32" viewBox="0 0 32 32" fill="none" xmlns="http://www.w3.org/2000/svg">
<path d="M25.9192 0H6.08061C5.03306 0 4.18286 0.853793 4.18286 1.89775V30.1023C4.18286 31.1498 5.03665 32 6.08061 32H25.9192C26.9667 32 27.8169 31.1462 27.8169 30.1023V1.89775C27.8169 0.853793 26.9667 0 25.9192 0ZM26.3856 30.1058C26.3856 30.3785 26.1918 30.5722 25.9192 30.5722H6.08061C5.80797 30.5722 5.61425 30.3785 5.61425 30.1058V1.89775C5.61425 1.62511 5.80797 1.43139 6.08061 1.43139H25.9192C26.1918 1.43139 26.3855 1.62511 26.3855 1.89775V30.1058H26.3856ZM23.0923 22.4717C23.0923 22.8592 22.7837 23.1677 22.3963 23.1677H13.4815C13.0941 23.1677 12.7856 22.8592 12.7856 22.4717C12.7856 22.0843 13.0941 21.7758 13.4815 21.7758H22.3927C22.7443 21.7363 23.0923 22.0843 23.0923 22.4717ZM23.0923 26.7731C23.0923 27.1605 22.7837 27.4691 22.3963 27.4691H13.4815C13.0941 27.4691 12.7856 27.1605 12.7856 26.7731C12.7856 26.3857 13.0941 26.0772 13.4815 26.0772H22.3927C22.7443 26.0377 23.0923 26.3857 23.0923 26.7731ZM23.0923 18.2099C23.0923 18.5973 22.7837 18.9058 22.3963 18.9058H13.4815C13.0941 18.9058 12.7856 18.5973 12.7856 18.2099C12.7856 17.8224 13.0941 17.5139 13.4815 17.5139H22.3927C22.7443 17.5139 23.0923 17.8224 23.0923 18.2099ZM23.0923 13.9874C23.0923 14.3749 22.7837 14.6834 22.3963 14.6834H13.4815C13.0941 14.6834 12.7856 14.3749 12.7856 13.9874C12.7856 13.6 13.0941 13.2915 13.4815 13.2915H22.3927C22.7443 13.2915 23.0923 13.6 23.0923 13.9874ZM12.7461 9.76502C12.7461 9.37758 13.0546 9.06906 13.442 9.06906H22.2743C22.6618 9.06906 22.9703 9.37758 22.9703 9.76502C22.9703 10.1525 22.6618 10.461 22.2743 10.461H13.4456C13.0582 10.461 12.7461 10.1525 12.7461 9.76502ZM12.7461 5.50312C12.7461 5.11569 13.0546 4.80717 13.442 4.80717H22.2743C22.6618 4.80717 22.9703 5.11569 22.9703 5.50312C22.9703 5.89056 22.6618 6.19908 22.2743 6.19908H13.4456C13.0582 6.23856 12.7461 5.8906 12.7461 5.50312ZM10.1882 5.50312C10.1882 5.93004 9.84022 6.278 9.41335 6.278C8.98643 6.278 8.63847 5.93 8.63847 5.50312C8.63847 5.07621 8.98647 4.72825 9.41335 4.72825C9.84026 4.72825 10.1882 5.07625 10.1882 5.50312ZM10.1882 9.76502C10.1882 10.1919 9.84022 10.5399 9.41335 10.5399C8.98643 10.5399 8.63847 10.1919 8.63847 9.76502C8.63847 9.33814 8.98647 8.99014 9.41335 8.99014C9.84026 8.95066 10.1882 9.29866 10.1882 9.76502ZM10.1882 13.9085C10.1882 14.3354 9.84022 14.6834 9.41335 14.6834C8.98643 14.6834 8.63847 14.3354 8.63847 13.9085C8.63847 13.4816 8.98647 13.1336 9.41335 13.1336C9.84026 13.0978 10.1882 13.4458 10.1882 13.9085ZM10.1882 18.1345C10.1882 18.5614 9.84022 18.9094 9.41335 18.9094C8.98643 18.9094 8.63847 18.5614 8.63847 18.1345C8.63847 17.7076 8.98647 17.3596 9.41335 17.3596C9.84026 17.3596 10.1882 17.7076 10.1882 18.1345ZM10.1882 22.5112C10.1882 22.9381 9.84022 23.2861 9.41335 23.2861C8.98643 23.2861 8.63847 22.9381 8.63847 22.5112C8.63847 22.0843 8.98647 21.7363 9.41335 21.7363C9.84026 21.7363 10.1882 22.0843 10.1882 22.5112ZM10.1882 26.7731C10.1882 27.2 9.84022 27.548 9.41335 27.548C8.98643 27.548 8.63847 27.2 8.63847 26.7731C8.63847 26.3462 8.98647 25.9982 9.41335 25.9982C9.84026 25.9588 10.1882 26.3462 10.1882 26.7731Z" fill="#5653F3"/>
</svg>
