<svg width="358" height="211" viewBox="0 0 358 211" fill="none" xmlns="http://www.w3.org/2000/svg">
<g filter="url(#filter0_d_57_57)">
<rect x="4" width="350" height="203" fill="white"/>
</g>
<ellipse cx="66.9808" cy="79.5" rx="37.0192" ry="38.5" fill="#5653F3"/>
<path d="M63.9303 76.3003C64.534 77.1992 64.8567 78.2868 64.8624 79.4457C64.8687 80.5854 64.5517 81.6782 63.9465 82.6057L65.1145 83.4304C65.8806 82.2561 66.2824 80.8755 66.2746 79.4376C66.2669 77.9791 65.8566 76.6036 65.0883 75.4595L63.9303 76.3003Z" fill="white"/>
<path d="M67.5301 85.0415C68.5639 83.3913 69.1062 81.4511 69.0991 79.4309C69.0921 77.4194 68.5441 75.4887 67.516 73.8481L66.3325 74.6501C67.2124 76.0535 67.6805 77.7088 67.6862 79.4367C67.6925 81.1691 67.2293 82.8303 66.3466 84.2395L67.5301 85.0415Z" fill="white"/>
<path d="M62.8301 81.833C63.2355 81.1155 63.4501 80.2916 63.4501 79.4485C63.4501 78.6025 63.2298 77.7734 62.8132 77.0508L61.6022 77.8065C61.8867 78.3014 62.0379 78.8691 62.0379 79.4485C62.0379 80.0294 61.891 80.5963 61.6128 81.0884L62.8301 81.833Z" fill="white"/>
<path d="M49.3275 75.8281V83.1719C50.5724 83.282 52.0045 83.4994 53.5643 83.9062C55.8486 84.5018 57.7446 85.3309 59.2133 86.1094V72.8906C57.7446 73.6691 55.8486 74.4982 53.5643 75.0938C52.0045 75.5006 50.5724 75.718 49.3275 75.8281Z" fill="white"/>
<path d="M46.15 89.0467H48.2684L47.5623 85.3748L48.0947 83.1592L48.6215 83.1717V75.8279L45.0908 75.811V83.0865L46.15 83.1122V89.0467Z" fill="white"/>
<path d="M86.3351 64.0835L85.7574 65.4237C86.4558 65.7491 87.1358 66.1361 87.7791 66.5716L88.5509 65.3415C87.8455 64.8641 87.1005 64.4404 86.3351 64.0835Z" fill="white"/>
<path d="M65.2211 71.8219L66.4787 72.4902C67.9919 69.4117 70.4867 66.9222 73.5047 65.4799L72.9151 64.1455C69.6111 65.7251 66.8784 68.4511 65.2211 71.8219Z" fill="white"/>
<path d="M73.0464 94.9166L73.6247 93.5771C71.0226 92.3624 68.8216 90.4038 67.2596 87.9121L66.0762 88.714C67.7871 91.4415 70.1971 93.5866 73.0464 94.9166Z" fill="white"/>
<path d="M87.7791 92.4277C87.1365 92.8632 86.4565 93.2502 85.7574 93.5756L86.3351 94.9158C87.1012 94.5582 87.8469 94.1352 88.5502 93.6571L87.7791 92.4277Z" fill="white"/>
<path d="M80.0442 76.2123V79.1329H83.5579C83.5367 78.0504 83.4329 76.9893 83.2366 75.9751C82.2254 76.1176 81.1514 76.1983 80.0442 76.2123Z" fill="white"/>
<path d="M82.3836 73.0405C81.6662 73.1639 80.8732 73.2351 80.0442 73.2513V75.4787C81.0935 75.4647 82.1096 75.3898 83.0678 75.2583C82.8828 74.4872 82.6653 73.7374 82.3808 73.042L82.3836 73.0405Z" fill="white"/>
<path d="M76.433 72.1746C77.3651 72.3964 78.5055 72.5234 79.6911 72.5234C80.8767 72.5234 82.0171 72.3964 82.9491 72.1746C81.957 71.6965 80.8562 71.4219 79.6911 71.4219C78.5259 71.4219 77.4251 71.6965 76.433 72.1746Z" fill="white"/>
<path d="M80.0442 83.5459V85.749C80.8739 85.7652 81.6676 85.8372 82.385 85.9605C82.666 85.2717 82.8821 84.5292 83.0657 83.7662C82.1082 83.6348 81.0928 83.5599 80.0442 83.5459Z" fill="white"/>
<path d="M76.1491 83.0485C77.1596 82.906 78.2322 82.826 79.338 82.8113V79.8672H75.8236C75.8448 80.9585 75.95 82.027 76.1491 83.0485Z" fill="white"/>
<path d="M86.2977 83.7329C86.9706 82.5991 87.3794 81.2816 87.4409 79.8672H84.2732C84.2534 80.9945 84.1418 82.1004 83.9385 83.1594C84.7844 83.307 85.5774 83.4994 86.2977 83.7329Z" fill="white"/>
<path d="M80.0442 82.8113C81.1507 82.8252 82.2233 82.906 83.2345 83.0485C83.4329 82.027 83.5381 80.9585 83.5586 79.8672H80.0442V82.8113Z" fill="white"/>
<path d="M86.309 75.2871C85.5859 75.5221 84.7901 75.716 83.9399 75.8643C84.1412 76.916 84.2521 78.0138 84.2725 79.133H87.4409C87.3795 77.7267 86.9756 76.4166 86.309 75.2871Z" fill="white"/>
<path d="M83.8431 72.6807C83.6051 72.7592 83.3545 72.8327 83.0847 72.8966C83.3679 73.6096 83.6051 74.3616 83.7894 75.1467C84.5401 75.0167 85.2462 74.8507 85.8937 74.6517C85.3295 73.8726 84.6361 73.2043 83.8431 72.6807Z" fill="white"/>
<path d="M75.8236 79.1327H79.338V76.2121C78.2301 76.1981 77.1561 76.1166 76.1435 75.9741C75.9479 76.989 75.8441 78.0502 75.8236 79.1327Z" fill="white"/>
<path d="M79.3381 83.5459C78.2902 83.5599 77.2748 83.6348 76.318 83.7655C76.5016 84.5285 76.7177 85.2709 76.9994 85.9598C77.7168 85.8364 78.5091 85.7652 79.3381 85.749V83.5459Z" fill="white"/>
<path d="M75.539 86.3195C75.7763 86.2409 76.0263 86.1682 76.2953 86.1043C76.015 85.3986 75.7791 84.6539 75.5962 83.877C74.8499 84.0062 74.1473 84.1707 73.5026 84.3683C74.0639 85.1386 74.7524 85.8003 75.539 86.3195Z" fill="white"/>
<path d="M83.089 86.105C83.3566 86.1689 83.6059 86.2416 83.8424 86.3195C84.6291 85.8003 85.3175 85.1386 85.8789 84.3683C85.2349 84.1707 84.533 84.0062 83.7866 83.877C83.6045 84.6539 83.3693 85.3986 83.089 86.105Z" fill="white"/>
<path d="M75.441 75.8634C74.5915 75.715 73.7957 75.5211 73.0733 75.2861C72.4074 76.4156 72.0028 77.7257 71.9414 79.1321H75.1091C75.1296 78.0136 75.2397 76.915 75.441 75.8634Z" fill="white"/>
<path d="M82.9485 86.8261C82.0164 86.6036 80.876 86.4766 79.6911 86.4766C78.5062 86.4766 77.3658 86.6036 76.4337 86.8261C77.4251 87.3035 78.526 87.5781 79.6911 87.5781C80.8562 87.5781 81.9571 87.3035 82.9485 86.8261Z" fill="white"/>
<path d="M79.338 75.4777V73.2503C78.509 73.2342 77.716 73.1629 76.9993 73.0396C76.7147 73.735 76.4966 74.4855 76.3123 75.2566C77.2712 75.3896 78.288 75.4645 79.338 75.4777Z" fill="white"/>
<path d="M73.0845 83.7329C73.8055 83.4994 74.5992 83.307 75.4458 83.1594C75.2418 82.1004 75.1302 80.9952 75.1097 79.8672H71.942C72.0027 81.2816 72.4116 82.5991 73.0845 83.7329Z" fill="white"/>
<path d="M75.592 75.146C75.7756 74.3609 76.0128 73.6089 76.296 72.8958C76.027 72.8319 75.777 72.7592 75.5397 72.6807C74.746 73.2043 74.0533 73.8726 73.4891 74.651C74.136 74.8507 74.8414 75.016 75.592 75.146Z" fill="white"/>
<path d="M79.6911 56.7344C76.5715 56.7344 74.0421 59.3649 74.0421 62.6094C74.0421 65.8538 76.5715 68.4844 79.6911 68.4844C82.8108 68.4844 85.3402 65.8538 85.3402 62.6094C85.3402 59.3649 82.8108 56.7344 79.6911 56.7344ZM79.6911 67.75C78.3107 67.75 77.0643 67.1603 76.1676 66.2115C76.2036 64.6223 77.4478 63.3438 78.985 63.3438H79.6911C78.5211 63.3438 77.5728 62.3575 77.5728 61.1406C77.5728 59.9238 78.5211 58.9375 79.6911 58.9375C80.8612 58.9375 81.8095 59.9238 81.8095 61.1406C81.8095 62.3575 80.8612 63.3438 79.6911 63.3438H80.3973C81.9345 63.3438 83.1787 64.6223 83.2147 66.2115C82.318 67.1603 81.0716 67.75 79.6911 67.75Z" fill="white"/>
<path d="M79.6911 102.266C82.8108 102.266 85.3402 99.6351 85.3402 96.3906C85.3402 93.1462 82.8108 90.5156 79.6911 90.5156C76.5715 90.5156 74.0421 93.1462 74.0421 96.3906C74.0421 99.6351 76.5715 102.266 79.6911 102.266ZM78.985 97.125H79.6911C78.5211 97.125 77.5728 96.1387 77.5728 94.9219C77.5728 93.705 78.5211 92.7188 79.6911 92.7188C80.8612 92.7188 81.8095 93.705 81.8095 94.9219C81.8095 96.1387 80.8612 97.125 79.6911 97.125H80.3973C81.9345 97.125 83.1787 98.4035 83.2147 99.9927C82.318 100.942 81.0716 101.531 79.6911 101.531C78.3107 101.531 77.0643 100.942 76.1676 99.9927C76.2036 98.4035 77.4478 97.125 78.985 97.125Z" fill="white"/>
<path d="M125.887 72V49.6H130.175L143.391 65.728H141.311V49.6H146.431V72H142.175L128.927 55.872H131.007V72H125.887ZM159.922 72.256C157.96 72.256 156.232 71.872 154.738 71.104C153.266 70.336 152.125 69.2907 151.314 67.968C150.504 66.624 150.098 65.0987 150.098 63.392C150.098 61.664 150.493 60.1387 151.282 58.816C152.093 57.472 153.192 56.4267 154.578 55.68C155.965 54.912 157.533 54.528 159.282 54.528C160.968 54.528 162.482 54.8907 163.826 55.616C165.192 56.32 166.269 57.344 167.058 58.688C167.848 60.0107 168.242 61.6 168.242 63.456C168.242 63.648 168.232 63.872 168.21 64.128C168.189 64.3627 168.168 64.5867 168.146 64.8H154.162V61.888H165.522L163.602 62.752C163.602 61.856 163.421 61.0773 163.058 60.416C162.696 59.7547 162.194 59.2427 161.554 58.88C160.914 58.496 160.168 58.304 159.314 58.304C158.461 58.304 157.704 58.496 157.042 58.88C156.402 59.2427 155.901 59.7653 155.538 60.448C155.176 61.1093 154.994 61.8987 154.994 62.816V63.584C154.994 64.5227 155.197 65.3547 155.602 66.08C156.029 66.784 156.616 67.328 157.362 67.712C158.13 68.0747 159.026 68.256 160.05 68.256C160.968 68.256 161.768 68.1173 162.45 67.84C163.154 67.5627 163.794 67.1467 164.37 66.592L167.026 69.472C166.237 70.368 165.245 71.0613 164.05 71.552C162.856 72.0213 161.48 72.256 159.922 72.256ZM175.189 72L168.981 54.784H173.685L178.837 69.6H176.597L181.973 54.784H186.197L191.413 69.6H189.173L194.485 54.784H198.901L192.661 72H187.829L183.253 59.296H184.725L179.989 72H175.189ZM206.764 72.256C205.292 72.256 203.874 72.0853 202.508 71.744C201.164 71.3813 200.098 70.9333 199.308 70.4L200.972 66.816C201.762 67.3067 202.69 67.712 203.756 68.032C204.844 68.3307 205.911 68.48 206.956 68.48C208.108 68.48 208.919 68.3413 209.388 68.064C209.879 67.7867 210.124 67.4027 210.124 66.912C210.124 66.5067 209.932 66.208 209.548 66.016C209.186 65.8027 208.695 65.6427 208.076 65.536C207.458 65.4293 206.775 65.3227 206.028 65.216C205.303 65.1093 204.567 64.9707 203.82 64.8C203.074 64.608 202.391 64.3307 201.772 63.968C201.154 63.6053 200.652 63.1147 200.268 62.496C199.906 61.8773 199.724 61.0773 199.724 60.096C199.724 59.008 200.034 58.048 200.652 57.216C201.292 56.384 202.21 55.7333 203.404 55.264C204.599 54.7733 206.028 54.528 207.692 54.528C208.866 54.528 210.06 54.656 211.276 54.912C212.492 55.168 213.506 55.5413 214.316 56.032L212.652 59.584C211.82 59.0933 210.978 58.7627 210.124 58.592C209.292 58.4 208.482 58.304 207.692 58.304C206.583 58.304 205.772 58.4533 205.26 58.752C204.748 59.0507 204.492 59.4347 204.492 59.904C204.492 60.3307 204.674 60.6507 205.036 60.864C205.42 61.0773 205.922 61.248 206.54 61.376C207.159 61.504 207.831 61.6213 208.556 61.728C209.303 61.8133 210.05 61.952 210.796 62.144C211.543 62.336 212.215 62.6133 212.812 62.976C213.431 63.3173 213.932 63.7973 214.316 64.416C214.7 65.0133 214.892 65.8027 214.892 66.784C214.892 67.8507 214.572 68.8 213.932 69.632C213.292 70.4427 212.364 71.0827 211.148 71.552C209.954 72.0213 208.492 72.256 206.764 72.256Z" fill="black"/>
<line x1="4.00137" y1="153.5" x2="354.001" y2="154.462" stroke="black" stroke-opacity="0.35"/>
<path d="M126.628 101V91.62L127.076 92.096H124.318V91.2H127.636V101H126.628ZM129.797 101V100.286L133.871 96.296C134.244 95.932 134.524 95.6147 134.711 95.344C134.898 95.064 135.024 94.8027 135.089 94.56C135.154 94.3173 135.187 94.0887 135.187 93.874C135.187 93.3047 134.991 92.8567 134.599 92.53C134.216 92.2033 133.647 92.04 132.891 92.04C132.312 92.04 131.799 92.1287 131.351 92.306C130.912 92.4833 130.534 92.7587 130.217 93.132L129.503 92.516C129.886 92.068 130.376 91.7227 130.973 91.48C131.57 91.2373 132.238 91.116 132.975 91.116C133.638 91.116 134.212 91.2233 134.697 91.438C135.182 91.6433 135.556 91.9467 135.817 92.348C136.088 92.7493 136.223 93.2207 136.223 93.762C136.223 94.0793 136.176 94.392 136.083 94.7C135.999 95.008 135.84 95.3347 135.607 95.68C135.383 96.016 135.052 96.3987 134.613 96.828L130.875 100.496L130.595 100.104H136.671V101H129.797ZM146.052 101.07C145.417 101.07 144.843 100.925 144.33 100.636C143.817 100.337 143.406 99.9127 143.098 99.362C142.799 98.802 142.65 98.1207 142.65 97.318C142.65 96.5153 142.799 95.8387 143.098 95.288C143.397 94.728 143.803 94.3033 144.316 94.014C144.829 93.7247 145.408 93.58 146.052 93.58C146.752 93.58 147.377 93.7387 147.928 94.056C148.488 94.364 148.927 94.8027 149.244 95.372C149.561 95.932 149.72 96.5807 149.72 97.318C149.72 98.0647 149.561 98.718 149.244 99.278C148.927 99.838 148.488 100.277 147.928 100.594C147.377 100.911 146.752 101.07 146.052 101.07ZM142.258 103.716V93.65H143.21V95.862L143.112 97.332L143.252 98.816V103.716H142.258ZM145.982 100.188C146.505 100.188 146.971 100.071 147.382 99.838C147.793 99.5953 148.119 99.2593 148.362 98.83C148.605 98.3913 148.726 97.8873 148.726 97.318C148.726 96.7487 148.605 96.2493 148.362 95.82C148.119 95.3907 147.793 95.0547 147.382 94.812C146.971 94.5693 146.505 94.448 145.982 94.448C145.459 94.448 144.988 94.5693 144.568 94.812C144.157 95.0547 143.831 95.3907 143.588 95.82C143.355 96.2493 143.238 96.7487 143.238 97.318C143.238 97.8873 143.355 98.3913 143.588 98.83C143.831 99.2593 144.157 99.5953 144.568 99.838C144.988 100.071 145.459 100.188 145.982 100.188ZM154.742 101.07C154.033 101.07 153.394 100.911 152.824 100.594C152.264 100.267 151.821 99.824 151.494 99.264C151.168 98.6947 151.004 98.046 151.004 97.318C151.004 96.5807 151.168 95.932 151.494 95.372C151.821 94.812 152.264 94.3733 152.824 94.056C153.384 93.7387 154.024 93.58 154.742 93.58C155.47 93.58 156.114 93.7387 156.674 94.056C157.244 94.3733 157.687 94.812 158.004 95.372C158.331 95.932 158.494 96.5807 158.494 97.318C158.494 98.046 158.331 98.6947 158.004 99.264C157.687 99.824 157.244 100.267 156.674 100.594C156.105 100.911 155.461 101.07 154.742 101.07ZM154.742 100.188C155.274 100.188 155.746 100.071 156.156 99.838C156.567 99.5953 156.889 99.2593 157.122 98.83C157.365 98.3913 157.486 97.8873 157.486 97.318C157.486 96.7393 157.365 96.2353 157.122 95.806C156.889 95.3767 156.567 95.0453 156.156 94.812C155.746 94.5693 155.279 94.448 154.756 94.448C154.234 94.448 153.767 94.5693 153.356 94.812C152.946 95.0453 152.619 95.3767 152.376 95.806C152.134 96.2353 152.012 96.7393 152.012 97.318C152.012 97.8873 152.134 98.3913 152.376 98.83C152.619 99.2593 152.946 99.5953 153.356 99.838C153.767 100.071 154.229 100.188 154.742 100.188ZM162.498 101.07C161.891 101.07 161.317 100.986 160.776 100.818C160.234 100.641 159.81 100.421 159.502 100.16L159.95 99.376C160.248 99.6 160.631 99.796 161.098 99.964C161.564 100.123 162.054 100.202 162.568 100.202C163.268 100.202 163.772 100.095 164.08 99.88C164.388 99.656 164.542 99.362 164.542 98.998C164.542 98.7273 164.453 98.5173 164.276 98.368C164.108 98.2093 163.884 98.0927 163.604 98.018C163.324 97.934 163.011 97.864 162.666 97.808C162.32 97.752 161.975 97.6867 161.63 97.612C161.294 97.5373 160.986 97.43 160.706 97.29C160.426 97.1407 160.197 96.94 160.02 96.688C159.852 96.436 159.768 96.1 159.768 95.68C159.768 95.2787 159.88 94.9193 160.104 94.602C160.328 94.2847 160.654 94.0373 161.084 93.86C161.522 93.6733 162.054 93.58 162.68 93.58C163.156 93.58 163.632 93.6453 164.108 93.776C164.584 93.8973 164.976 94.0607 165.284 94.266L164.85 95.064C164.523 94.84 164.173 94.6813 163.8 94.588C163.426 94.4853 163.053 94.434 162.68 94.434C162.017 94.434 161.527 94.5507 161.21 94.784C160.902 95.008 160.748 95.2973 160.748 95.652C160.748 95.932 160.832 96.1513 161 96.31C161.177 96.4687 161.406 96.5947 161.686 96.688C161.975 96.772 162.288 96.842 162.624 96.898C162.969 96.954 163.31 97.024 163.646 97.108C163.991 97.1827 164.304 97.29 164.584 97.43C164.873 97.5607 165.102 97.752 165.27 98.004C165.447 98.2467 165.536 98.5687 165.536 98.97C165.536 99.3993 165.414 99.7727 165.172 100.09C164.938 100.398 164.593 100.641 164.136 100.818C163.688 100.986 163.142 101.07 162.498 101.07ZM169.684 101.07C168.993 101.07 168.461 100.883 168.088 100.51C167.714 100.137 167.528 99.6093 167.528 98.928V92.026H168.522V98.872C168.522 99.3013 168.629 99.6327 168.844 99.866C169.068 100.099 169.385 100.216 169.796 100.216C170.234 100.216 170.598 100.09 170.888 99.838L171.238 100.552C171.042 100.729 170.804 100.86 170.524 100.944C170.253 101.028 169.973 101.07 169.684 101.07ZM166.212 94.476V93.65H170.762V94.476H166.212ZM175.021 101.07C174.414 101.07 173.84 100.986 173.299 100.818C172.758 100.641 172.333 100.421 172.025 100.16L172.473 99.376C172.772 99.6 173.154 99.796 173.621 99.964C174.088 100.123 174.578 100.202 175.091 100.202C175.791 100.202 176.295 100.095 176.603 99.88C176.911 99.656 177.065 99.362 177.065 98.998C177.065 98.7273 176.976 98.5173 176.799 98.368C176.631 98.2093 176.407 98.0927 176.127 98.018C175.847 97.934 175.534 97.864 175.189 97.808C174.844 97.752 174.498 97.6867 174.153 97.612C173.817 97.5373 173.509 97.43 173.229 97.29C172.949 97.1407 172.72 96.94 172.543 96.688C172.375 96.436 172.291 96.1 172.291 95.68C172.291 95.2787 172.403 94.9193 172.627 94.602C172.851 94.2847 173.178 94.0373 173.607 93.86C174.046 93.6733 174.578 93.58 175.203 93.58C175.679 93.58 176.155 93.6453 176.631 93.776C177.107 93.8973 177.499 94.0607 177.807 94.266L177.373 95.064C177.046 94.84 176.696 94.6813 176.323 94.588C175.95 94.4853 175.576 94.434 175.203 94.434C174.54 94.434 174.05 94.5507 173.733 94.784C173.425 95.008 173.271 95.2973 173.271 95.652C173.271 95.932 173.355 96.1513 173.523 96.31C173.7 96.4687 173.929 96.5947 174.209 96.688C174.498 96.772 174.811 96.842 175.147 96.898C175.492 96.954 175.833 97.024 176.169 97.108C176.514 97.1827 176.827 97.29 177.107 97.43C177.396 97.5607 177.625 97.752 177.793 98.004C177.97 98.2467 178.059 98.5687 178.059 98.97C178.059 99.3993 177.938 99.7727 177.695 100.09C177.462 100.398 177.116 100.641 176.659 100.818C176.211 100.986 175.665 101.07 175.021 101.07Z" fill="black"/>
<path d="M34.7451 184L31.4411 174.2H32.5051L35.5991 183.426H35.0671L38.2591 174.2H39.2111L42.3611 183.426H41.8571L44.9791 174.2H45.9731L42.6691 184H41.5771L38.5671 175.25H38.8471L35.8231 184H34.7451ZM50.2241 184.07C49.4587 184.07 48.7867 183.911 48.2081 183.594C47.6294 183.267 47.1767 182.824 46.8501 182.264C46.5234 181.695 46.3601 181.046 46.3601 180.318C46.3601 179.59 46.5141 178.946 46.8221 178.386C47.1394 177.826 47.5687 177.387 48.1101 177.07C48.6607 176.743 49.2767 176.58 49.9581 176.58C50.6487 176.58 51.2601 176.739 51.7921 177.056C52.3334 177.364 52.7581 177.803 53.0661 178.372C53.3741 178.932 53.5281 179.581 53.5281 180.318C53.5281 180.365 53.5234 180.416 53.5141 180.472C53.5141 180.519 53.5141 180.57 53.5141 180.626H47.1161V179.884H52.9821L52.5901 180.178C52.5901 179.646 52.4734 179.175 52.2401 178.764C52.0161 178.344 51.7081 178.017 51.3161 177.784C50.9241 177.551 50.4714 177.434 49.9581 177.434C49.4541 177.434 49.0014 177.551 48.6001 177.784C48.1987 178.017 47.8861 178.344 47.6621 178.764C47.4381 179.184 47.3261 179.665 47.3261 180.206V180.36C47.3261 180.92 47.4474 181.415 47.6901 181.844C47.9421 182.264 48.2874 182.595 48.7261 182.838C49.1741 183.071 49.6827 183.188 50.2521 183.188C50.7001 183.188 51.1154 183.109 51.4981 182.95C51.8901 182.791 52.2261 182.549 52.5061 182.222L53.0661 182.866C52.7394 183.258 52.3287 183.557 51.8341 183.762C51.3487 183.967 50.8121 184.07 50.2241 184.07ZM62.2673 184.07C61.5393 184.07 60.886 183.911 60.3073 183.594C59.738 183.267 59.29 182.824 58.9633 182.264C58.6367 181.695 58.4733 181.046 58.4733 180.318C58.4733 179.581 58.6367 178.932 58.9633 178.372C59.29 177.812 59.738 177.373 60.3073 177.056C60.886 176.739 61.5393 176.58 62.2673 176.58C62.8927 176.58 63.4573 176.701 63.9613 176.944C64.4653 177.187 64.862 177.551 65.1513 178.036L64.4093 178.54C64.1573 178.167 63.8447 177.891 63.4713 177.714C63.098 177.537 62.692 177.448 62.2533 177.448C61.7307 177.448 61.2593 177.569 60.8393 177.812C60.4193 178.045 60.088 178.377 59.8453 178.806C59.6027 179.235 59.4813 179.739 59.4813 180.318C59.4813 180.897 59.6027 181.401 59.8453 181.83C60.088 182.259 60.4193 182.595 60.8393 182.838C61.2593 183.071 61.7307 183.188 62.2533 183.188C62.692 183.188 63.098 183.099 63.4713 182.922C63.8447 182.745 64.1573 182.474 64.4093 182.11L65.1513 182.614C64.862 183.09 64.4653 183.454 63.9613 183.706C63.4573 183.949 62.8927 184.07 62.2673 184.07ZM71.71 184V182.376L71.668 182.11V179.394C71.668 178.769 71.4907 178.288 71.136 177.952C70.7907 177.616 70.2727 177.448 69.582 177.448C69.106 177.448 68.6534 177.527 68.224 177.686C67.7947 177.845 67.4307 178.055 67.132 178.316L66.684 177.574C67.0574 177.257 67.5054 177.014 68.028 176.846C68.5507 176.669 69.1014 176.58 69.68 176.58C70.632 176.58 71.3647 176.818 71.878 177.294C72.4007 177.761 72.662 178.475 72.662 179.436V184H71.71ZM69.176 184.07C68.6254 184.07 68.1447 183.981 67.734 183.804C67.3327 183.617 67.0247 183.365 66.81 183.048C66.5954 182.721 66.488 182.348 66.488 181.928C66.488 181.545 66.5767 181.2 66.754 180.892C66.9407 180.575 67.2394 180.323 67.65 180.136C68.07 179.94 68.63 179.842 69.33 179.842H71.864V180.584H69.358C68.6487 180.584 68.154 180.71 67.874 180.962C67.6034 181.214 67.468 181.527 67.468 181.9C67.468 182.32 67.6314 182.656 67.958 182.908C68.2847 183.16 68.742 183.286 69.33 183.286C69.89 183.286 70.3707 183.16 70.772 182.908C71.1827 182.647 71.4814 182.273 71.668 181.788L71.892 182.474C71.7054 182.959 71.3787 183.347 70.912 183.636C70.4547 183.925 69.876 184.07 69.176 184.07ZM79.1138 176.58C79.7112 176.58 80.2338 176.697 80.6818 176.93C81.1392 177.154 81.4938 177.499 81.7458 177.966C82.0072 178.433 82.1378 179.021 82.1378 179.73V184H81.1438V179.828C81.1438 179.053 80.9478 178.47 80.5558 178.078C80.1732 177.677 79.6318 177.476 78.9318 177.476C78.4092 177.476 77.9518 177.583 77.5598 177.798C77.1772 178.003 76.8785 178.307 76.6638 178.708C76.4585 179.1 76.3558 179.576 76.3558 180.136V184H75.3618V176.65H76.3138V178.666L76.1598 178.288C76.3932 177.756 76.7665 177.341 77.2798 177.042C77.7932 176.734 78.4045 176.58 79.1138 176.58ZM93.0928 184V182.376L93.0508 182.11V179.394C93.0508 178.769 92.8735 178.288 92.5188 177.952C92.1735 177.616 91.6555 177.448 90.9648 177.448C90.4888 177.448 90.0362 177.527 89.6068 177.686C89.1775 177.845 88.8135 178.055 88.5148 178.316L88.0668 177.574C88.4402 177.257 88.8882 177.014 89.4108 176.846C89.9335 176.669 90.4842 176.58 91.0628 176.58C92.0148 176.58 92.7475 176.818 93.2608 177.294C93.7835 177.761 94.0448 178.475 94.0448 179.436V184H93.0928ZM90.5588 184.07C90.0082 184.07 89.5275 183.981 89.1168 183.804C88.7155 183.617 88.4075 183.365 88.1928 183.048C87.9782 182.721 87.8708 182.348 87.8708 181.928C87.8708 181.545 87.9595 181.2 88.1368 180.892C88.3235 180.575 88.6222 180.323 89.0328 180.136C89.4528 179.94 90.0128 179.842 90.7128 179.842H93.2468V180.584H90.7408C90.0315 180.584 89.5368 180.71 89.2568 180.962C88.9862 181.214 88.8508 181.527 88.8508 181.9C88.8508 182.32 89.0142 182.656 89.3408 182.908C89.6675 183.16 90.1248 183.286 90.7128 183.286C91.2728 183.286 91.7535 183.16 92.1548 182.908C92.5655 182.647 92.8642 182.273 93.0508 181.788L93.2748 182.474C93.0882 182.959 92.7615 183.347 92.2948 183.636C91.8375 183.925 91.2588 184.07 90.5588 184.07ZM99.6706 184.07C98.9706 184.07 98.3406 183.911 97.7806 183.594C97.23 183.277 96.796 182.838 96.4786 182.278C96.1613 181.709 96.0026 181.055 96.0026 180.318C96.0026 179.571 96.1613 178.918 96.4786 178.358C96.796 177.798 97.23 177.364 97.7806 177.056C98.3406 176.739 98.9706 176.58 99.6706 176.58C100.315 176.58 100.889 176.725 101.393 177.014C101.906 177.303 102.312 177.728 102.611 178.288C102.919 178.839 103.073 179.515 103.073 180.318C103.073 181.111 102.923 181.788 102.625 182.348C102.326 182.908 101.92 183.337 101.407 183.636C100.903 183.925 100.324 184.07 99.6706 184.07ZM99.7406 183.188C100.263 183.188 100.73 183.071 101.141 182.838C101.561 182.595 101.887 182.259 102.121 181.83C102.363 181.391 102.485 180.887 102.485 180.318C102.485 179.739 102.363 179.235 102.121 178.806C101.887 178.377 101.561 178.045 101.141 177.812C100.73 177.569 100.263 177.448 99.7406 177.448C99.2273 177.448 98.7653 177.569 98.3546 177.812C97.944 178.045 97.6173 178.377 97.3746 178.806C97.132 179.235 97.0106 179.739 97.0106 180.318C97.0106 180.887 97.132 181.391 97.3746 181.83C97.6173 182.259 97.944 182.595 98.3546 182.838C98.7653 183.071 99.2273 183.188 99.7406 183.188ZM102.513 184V181.788L102.611 180.304L102.471 178.82V173.612H103.465V184H102.513ZM109.159 184.07C108.459 184.07 107.829 183.911 107.269 183.594C106.718 183.277 106.284 182.838 105.967 182.278C105.65 181.709 105.491 181.055 105.491 180.318C105.491 179.571 105.65 178.918 105.967 178.358C106.284 177.798 106.718 177.364 107.269 177.056C107.829 176.739 108.459 176.58 109.159 176.58C109.803 176.58 110.377 176.725 110.881 177.014C111.394 177.303 111.8 177.728 112.099 178.288C112.407 178.839 112.561 179.515 112.561 180.318C112.561 181.111 112.412 181.788 112.113 182.348C111.814 182.908 111.408 183.337 110.895 183.636C110.391 183.925 109.812 184.07 109.159 184.07ZM109.229 183.188C109.752 183.188 110.218 183.071 110.629 182.838C111.049 182.595 111.376 182.259 111.609 181.83C111.852 181.391 111.973 180.887 111.973 180.318C111.973 179.739 111.852 179.235 111.609 178.806C111.376 178.377 111.049 178.045 110.629 177.812C110.218 177.569 109.752 177.448 109.229 177.448C108.716 177.448 108.254 177.569 107.843 177.812C107.432 178.045 107.106 178.377 106.863 178.806C106.62 179.235 106.499 179.739 106.499 180.318C106.499 180.887 106.62 181.391 106.863 181.83C107.106 182.259 107.432 182.595 107.843 182.838C108.254 183.071 108.716 183.188 109.229 183.188ZM112.001 184V181.788L112.099 180.304L111.959 178.82V173.612H112.953V184H112.001ZM123.179 184.07C122.545 184.07 121.971 183.925 121.457 183.636C120.944 183.337 120.533 182.913 120.225 182.362C119.927 181.802 119.777 181.121 119.777 180.318C119.777 179.515 119.927 178.839 120.225 178.288C120.524 177.728 120.93 177.303 121.443 177.014C121.957 176.725 122.535 176.58 123.179 176.58C123.879 176.58 124.505 176.739 125.055 177.056C125.615 177.364 126.054 177.803 126.371 178.372C126.689 178.932 126.847 179.581 126.847 180.318C126.847 181.065 126.689 181.718 126.371 182.278C126.054 182.838 125.615 183.277 125.055 183.594C124.505 183.911 123.879 184.07 123.179 184.07ZM119.385 186.716V176.65H120.337V178.862L120.239 180.332L120.379 181.816V186.716H119.385ZM123.109 183.188C123.632 183.188 124.099 183.071 124.509 182.838C124.92 182.595 125.247 182.259 125.489 181.83C125.732 181.391 125.853 180.887 125.853 180.318C125.853 179.749 125.732 179.249 125.489 178.82C125.247 178.391 124.92 178.055 124.509 177.812C124.099 177.569 123.632 177.448 123.109 177.448C122.587 177.448 122.115 177.569 121.695 177.812C121.285 178.055 120.958 178.391 120.715 178.82C120.482 179.249 120.365 179.749 120.365 180.318C120.365 180.887 120.482 181.391 120.715 181.83C120.958 182.259 121.285 182.595 121.695 182.838C122.115 183.071 122.587 183.188 123.109 183.188ZM131.87 184.07C131.16 184.07 130.521 183.911 129.952 183.594C129.392 183.267 128.948 182.824 128.622 182.264C128.295 181.695 128.132 181.046 128.132 180.318C128.132 179.581 128.295 178.932 128.622 178.372C128.948 177.812 129.392 177.373 129.952 177.056C130.512 176.739 131.151 176.58 131.87 176.58C132.598 176.58 133.242 176.739 133.802 177.056C134.371 177.373 134.814 177.812 135.132 178.372C135.458 178.932 135.622 179.581 135.622 180.318C135.622 181.046 135.458 181.695 135.132 182.264C134.814 182.824 134.371 183.267 133.802 183.594C133.232 183.911 132.588 184.07 131.87 184.07ZM131.87 183.188C132.402 183.188 132.873 183.071 133.284 182.838C133.694 182.595 134.016 182.259 134.25 181.83C134.492 181.391 134.614 180.887 134.614 180.318C134.614 179.739 134.492 179.235 134.25 178.806C134.016 178.377 133.694 178.045 133.284 177.812C132.873 177.569 132.406 177.448 131.884 177.448C131.361 177.448 130.894 177.569 130.484 177.812C130.073 178.045 129.746 178.377 129.504 178.806C129.261 179.235 129.14 179.739 129.14 180.318C129.14 180.887 129.261 181.391 129.504 181.83C129.746 182.259 130.073 182.595 130.484 182.838C130.894 183.071 131.356 183.188 131.87 183.188ZM139.625 184.07C139.018 184.07 138.444 183.986 137.903 183.818C137.362 183.641 136.937 183.421 136.629 183.16L137.077 182.376C137.376 182.6 137.758 182.796 138.225 182.964C138.692 183.123 139.182 183.202 139.695 183.202C140.395 183.202 140.899 183.095 141.207 182.88C141.515 182.656 141.669 182.362 141.669 181.998C141.669 181.727 141.58 181.517 141.403 181.368C141.235 181.209 141.011 181.093 140.731 181.018C140.451 180.934 140.138 180.864 139.793 180.808C139.448 180.752 139.102 180.687 138.757 180.612C138.421 180.537 138.113 180.43 137.833 180.29C137.553 180.141 137.324 179.94 137.147 179.688C136.979 179.436 136.895 179.1 136.895 178.68C136.895 178.279 137.007 177.919 137.231 177.602C137.455 177.285 137.782 177.037 138.211 176.86C138.65 176.673 139.182 176.58 139.807 176.58C140.283 176.58 140.759 176.645 141.235 176.776C141.711 176.897 142.103 177.061 142.411 177.266L141.977 178.064C141.65 177.84 141.3 177.681 140.927 177.588C140.554 177.485 140.18 177.434 139.807 177.434C139.144 177.434 138.654 177.551 138.337 177.784C138.029 178.008 137.875 178.297 137.875 178.652C137.875 178.932 137.959 179.151 138.127 179.31C138.304 179.469 138.533 179.595 138.813 179.688C139.102 179.772 139.415 179.842 139.751 179.898C140.096 179.954 140.437 180.024 140.773 180.108C141.118 180.183 141.431 180.29 141.711 180.43C142 180.561 142.229 180.752 142.397 181.004C142.574 181.247 142.663 181.569 142.663 181.97C142.663 182.399 142.542 182.773 142.299 183.09C142.066 183.398 141.72 183.641 141.263 183.818C140.815 183.986 140.269 184.07 139.625 184.07ZM146.811 184.07C146.12 184.07 145.588 183.883 145.215 183.51C144.841 183.137 144.655 182.609 144.655 181.928V175.026H145.649V181.872C145.649 182.301 145.756 182.633 145.971 182.866C146.195 183.099 146.512 183.216 146.923 183.216C147.361 183.216 147.725 183.09 148.015 182.838L148.365 183.552C148.169 183.729 147.931 183.86 147.651 183.944C147.38 184.028 147.1 184.07 146.811 184.07ZM143.339 177.476V176.65H147.889V177.476H143.339ZM157.502 184V176.65H158.496V184H157.502ZM158.006 175.026C157.801 175.026 157.628 174.956 157.488 174.816C157.348 174.676 157.278 174.508 157.278 174.312C157.278 174.116 157.348 173.953 157.488 173.822C157.628 173.682 157.801 173.612 158.006 173.612C158.212 173.612 158.384 173.677 158.524 173.808C158.664 173.939 158.734 174.102 158.734 174.298C158.734 174.503 158.664 174.676 158.524 174.816C158.394 174.956 158.221 175.026 158.006 175.026ZM165.014 176.58C165.612 176.58 166.134 176.697 166.582 176.93C167.04 177.154 167.394 177.499 167.646 177.966C167.908 178.433 168.038 179.021 168.038 179.73V184H167.044V179.828C167.044 179.053 166.848 178.47 166.456 178.078C166.074 177.677 165.532 177.476 164.832 177.476C164.31 177.476 163.852 177.583 163.46 177.798C163.078 178.003 162.779 178.307 162.564 178.708C162.359 179.1 162.256 179.576 162.256 180.136V184H161.262V176.65H162.214V178.666L162.06 178.288C162.294 177.756 162.667 177.341 163.18 177.042C163.694 176.734 164.305 176.58 165.014 176.58ZM174.597 184V174.2H178.265C179.096 174.2 179.81 174.335 180.407 174.606C181.005 174.867 181.462 175.25 181.779 175.754C182.106 176.249 182.269 176.851 182.269 177.56C182.269 178.251 182.106 178.848 181.779 179.352C181.462 179.847 181.005 180.229 180.407 180.5C179.81 180.771 179.096 180.906 178.265 180.906H175.171L175.633 180.416V184H174.597ZM175.633 180.5L175.171 179.996H178.237C179.217 179.996 179.959 179.786 180.463 179.366C180.977 178.937 181.233 178.335 181.233 177.56C181.233 176.776 180.977 176.169 180.463 175.74C179.959 175.311 179.217 175.096 178.237 175.096H175.171L175.633 174.606V180.5ZM188.837 184V182.376L188.795 182.11V179.394C188.795 178.769 188.618 178.288 188.263 177.952C187.918 177.616 187.4 177.448 186.709 177.448C186.233 177.448 185.78 177.527 185.351 177.686C184.922 177.845 184.558 178.055 184.259 178.316L183.811 177.574C184.184 177.257 184.632 177.014 185.155 176.846C185.678 176.669 186.228 176.58 186.807 176.58C187.759 176.58 188.492 176.818 189.005 177.294C189.528 177.761 189.789 178.475 189.789 179.436V184H188.837ZM186.303 184.07C185.752 184.07 185.272 183.981 184.861 183.804C184.46 183.617 184.152 183.365 183.937 183.048C183.722 182.721 183.615 182.348 183.615 181.928C183.615 181.545 183.704 181.2 183.881 180.892C184.068 180.575 184.366 180.323 184.777 180.136C185.197 179.94 185.757 179.842 186.457 179.842H188.991V180.584H186.485C185.776 180.584 185.281 180.71 185.001 180.962C184.73 181.214 184.595 181.527 184.595 181.9C184.595 182.32 184.758 182.656 185.085 182.908C185.412 183.16 185.869 183.286 186.457 183.286C187.017 183.286 187.498 183.16 187.899 182.908C188.31 182.647 188.608 182.273 188.795 181.788L189.019 182.474C188.832 182.959 188.506 183.347 188.039 183.636C187.582 183.925 187.003 184.07 186.303 184.07ZM195.625 186.786C194.953 186.786 194.309 186.688 193.693 186.492C193.077 186.296 192.577 186.016 192.195 185.652L192.699 184.896C193.044 185.204 193.469 185.447 193.973 185.624C194.486 185.811 195.027 185.904 195.597 185.904C196.53 185.904 197.216 185.685 197.655 185.246C198.093 184.817 198.313 184.145 198.313 183.23V181.396L198.453 180.136L198.355 178.876V176.65H199.307V183.104C199.307 184.373 198.994 185.302 198.369 185.89C197.753 186.487 196.838 186.786 195.625 186.786ZM195.443 183.72C194.743 183.72 194.113 183.571 193.553 183.272C192.993 182.964 192.549 182.539 192.223 181.998C191.905 181.457 191.747 180.836 191.747 180.136C191.747 179.436 191.905 178.82 192.223 178.288C192.549 177.747 192.993 177.327 193.553 177.028C194.113 176.729 194.743 176.58 195.443 176.58C196.096 176.58 196.684 176.715 197.207 176.986C197.729 177.257 198.145 177.658 198.453 178.19C198.761 178.722 198.915 179.371 198.915 180.136C198.915 180.901 198.761 181.55 198.453 182.082C198.145 182.614 197.729 183.02 197.207 183.3C196.684 183.58 196.096 183.72 195.443 183.72ZM195.541 182.838C196.082 182.838 196.563 182.726 196.983 182.502C197.403 182.269 197.734 181.951 197.977 181.55C198.219 181.139 198.341 180.668 198.341 180.136C198.341 179.604 198.219 179.137 197.977 178.736C197.734 178.335 197.403 178.022 196.983 177.798C196.563 177.565 196.082 177.448 195.541 177.448C195.009 177.448 194.528 177.565 194.099 177.798C193.679 178.022 193.347 178.335 193.105 178.736C192.871 179.137 192.755 179.604 192.755 180.136C192.755 180.668 192.871 181.139 193.105 181.55C193.347 181.951 193.679 182.269 194.099 182.502C194.528 182.726 195.009 182.838 195.541 182.838ZM205.195 184.07C204.429 184.07 203.757 183.911 203.179 183.594C202.6 183.267 202.147 182.824 201.821 182.264C201.494 181.695 201.331 181.046 201.331 180.318C201.331 179.59 201.485 178.946 201.793 178.386C202.11 177.826 202.539 177.387 203.081 177.07C203.631 176.743 204.247 176.58 204.929 176.58C205.619 176.58 206.231 176.739 206.763 177.056C207.304 177.364 207.729 177.803 208.037 178.372C208.345 178.932 208.499 179.581 208.499 180.318C208.499 180.365 208.494 180.416 208.485 180.472C208.485 180.519 208.485 180.57 208.485 180.626H202.087V179.884H207.953L207.561 180.178C207.561 179.646 207.444 179.175 207.211 178.764C206.987 178.344 206.679 178.017 206.287 177.784C205.895 177.551 205.442 177.434 204.929 177.434C204.425 177.434 203.972 177.551 203.571 177.784C203.169 178.017 202.857 178.344 202.633 178.764C202.409 179.184 202.297 179.665 202.297 180.206V180.36C202.297 180.92 202.418 181.415 202.661 181.844C202.913 182.264 203.258 182.595 203.697 182.838C204.145 183.071 204.653 183.188 205.223 183.188C205.671 183.188 206.086 183.109 206.469 182.95C206.861 182.791 207.197 182.549 207.477 182.222L208.037 182.866C207.71 183.258 207.299 183.557 206.805 183.762C206.319 183.967 205.783 184.07 205.195 184.07ZM212.496 184.07C211.889 184.07 211.315 183.986 210.774 183.818C210.233 183.641 209.808 183.421 209.5 183.16L209.948 182.376C210.247 182.6 210.629 182.796 211.096 182.964C211.563 183.123 212.053 183.202 212.566 183.202C213.266 183.202 213.77 183.095 214.078 182.88C214.386 182.656 214.54 182.362 214.54 181.998C214.54 181.727 214.451 181.517 214.274 181.368C214.106 181.209 213.882 181.093 213.602 181.018C213.322 180.934 213.009 180.864 212.664 180.808C212.319 180.752 211.973 180.687 211.628 180.612C211.292 180.537 210.984 180.43 210.704 180.29C210.424 180.141 210.195 179.94 210.018 179.688C209.85 179.436 209.766 179.1 209.766 178.68C209.766 178.279 209.878 177.919 210.102 177.602C210.326 177.285 210.653 177.037 211.082 176.86C211.521 176.673 212.053 176.58 212.678 176.58C213.154 176.58 213.63 176.645 214.106 176.776C214.582 176.897 214.974 177.061 215.282 177.266L214.848 178.064C214.521 177.84 214.171 177.681 213.798 177.588C213.425 177.485 213.051 177.434 212.678 177.434C212.015 177.434 211.525 177.551 211.208 177.784C210.9 178.008 210.746 178.297 210.746 178.652C210.746 178.932 210.83 179.151 210.998 179.31C211.175 179.469 211.404 179.595 211.684 179.688C211.973 179.772 212.286 179.842 212.622 179.898C212.967 179.954 213.308 180.024 213.644 180.108C213.989 180.183 214.302 180.29 214.582 180.43C214.871 180.561 215.1 180.752 215.268 181.004C215.445 181.247 215.534 181.569 215.534 181.97C215.534 182.399 215.413 182.773 215.17 183.09C214.937 183.398 214.591 183.641 214.134 183.818C213.686 183.986 213.14 184.07 212.496 184.07Z" fill="black"/>
<defs>
<filter id="filter0_d_57_57" x="0" y="0" width="358" height="211" filterUnits="userSpaceOnUse" color-interpolation-filters="sRGB">
<feFlood flood-opacity="0" result="BackgroundImageFix"/>
<feColorMatrix in="SourceAlpha" type="matrix" values="0 0 0 0 0 0 0 0 0 0 0 0 0 0 0 0 0 0 127 0" result="hardAlpha"/>
<feOffset dy="4"/>
<feGaussianBlur stdDeviation="2"/>
<feComposite in2="hardAlpha" operator="out"/>
<feColorMatrix type="matrix" values="0 0 0 0 0 0 0 0 0 0 0 0 0 0 0 0 0 0 0.25 0"/>
<feBlend mode="normal" in2="BackgroundImageFix" result="effect1_dropShadow_57_57"/>
<feBlend mode="normal" in="SourceGraphic" in2="effect1_dropShadow_57_57" result="shape"/>
</filter>
</defs>
</svg>
