<svg width="32" height="32" viewBox="0 0 32 32" fill="none" xmlns="http://www.w3.org/2000/svg">
<g clip-path="url(#clip0_3_567)">
<path d="M25.8332 9.73536C25.8332 9.45931 26.0571 9.23535 26.3331 9.23535C26.6092 9.23535 26.8332 9.46032 26.8332 9.73536V28.9167C26.8332 29.7635 26.4852 30.5344 25.9269 31.0937C25.3686 31.6521 24.5967 32 23.7499 32H8.24984C7.40297 32 6.63006 31.6521 6.07274 31.0937C5.51442 30.5354 5.1665 29.7647 5.1665 28.9167V9.73536C5.1665 9.45931 5.39047 9.23535 5.66647 9.23535C5.94252 9.23535 6.16649 9.46032 6.16649 9.73536V28.9167C6.16649 29.4875 6.40194 30.0094 6.77901 30.3864C7.15608 30.7635 7.67797 31 8.24879 31H23.7489C24.3197 31 24.8405 30.7634 25.2176 30.3864C25.5957 30.0083 25.8311 29.4875 25.8311 28.9177V9.73536H25.8332Z" fill="#5653F3"/>
<path d="M12.2708 27.6252C12.2708 27.9013 12.0468 28.1252 11.7708 28.1252C11.4947 28.1252 11.2708 27.9013 11.2708 27.6252V9.86476C11.2708 9.58871 11.4947 9.36475 11.7708 9.36475C12.0468 9.36475 12.2708 9.58871 12.2708 9.86476V27.6252Z" fill="#5653F3"/>
<path d="M16.5 27.6252C16.5 27.9013 16.2761 28.1252 16 28.1252C15.724 28.1252 15.5 27.9013 15.5 27.6252V9.86476C15.5 9.58871 15.724 9.36475 16 9.36475C16.2761 9.36475 16.5 9.58871 16.5 9.86476V27.6252Z" fill="#5653F3"/>
<path d="M20.7302 27.6252C20.7302 27.9013 20.5063 28.1252 20.2302 28.1252C19.9541 28.1252 19.7302 27.9013 19.7302 27.6252V9.86476C19.7302 9.58871 19.9541 9.36475 20.2302 9.36475C20.5063 9.36475 20.7302 9.58871 20.7302 9.86476V27.6252Z" fill="#5653F3"/>
<path d="M11.979 3.08334C11.979 3.35939 11.755 3.58335 11.479 3.58335C11.203 3.58335 10.979 3.35939 10.979 3.08334C10.979 2.23436 11.3259 1.46356 11.8842 0.905232C12.4426 0.346861 13.2134 0 14.0623 0H17.9374C18.7853 0 19.5561 0.347913 20.1144 0.906241C20.6727 1.46457 21.0207 2.23747 21.0207 3.08334C21.0207 3.35939 20.7967 3.58335 20.5207 3.58335C20.2446 3.58335 20.0207 3.35939 20.0207 3.08334C20.0207 2.51252 19.7853 1.99063 19.4082 1.61355C19.031 1.23644 18.5092 0.999982 17.9384 0.999982H14.0634C13.4916 0.999982 12.9707 1.23539 12.5926 1.6125C12.2144 1.99063 11.979 2.51146 11.979 3.08334Z" fill="#5653F3"/>
<path d="M4.37491 4.521H27.6249C28.1155 4.521 28.5635 4.72203 28.8885 5.04705L28.8905 5.04916C29.2156 5.37414 29.4166 5.82206 29.4166 6.31269V7.60438C29.4166 7.88039 29.1926 8.10435 28.9166 8.10435H28.903H3.08326C2.80721 8.10435 2.58325 7.88039 2.58325 7.60438V7.59188V6.31269C2.58325 5.82312 2.78428 5.37414 3.10931 5.04916L3.11141 5.04705C3.4364 4.72207 3.88533 4.521 4.37491 4.521ZM27.625 5.52102H4.37491C4.15721 5.52102 3.95824 5.60959 3.81658 5.75226L3.81447 5.75437C3.67176 5.89599 3.58323 6.09395 3.58323 6.31269V7.10437H28.4156V6.31269C28.4156 6.095 28.327 5.89603 28.1844 5.75437L28.1822 5.75226C28.0406 5.60959 27.8427 5.52102 27.625 5.52102Z" fill="#5653F3"/>
</g>
<defs>
<clipPath id="clip0_3_567">
<rect width="32" height="32" fill="white"/>
</clipPath>
</defs>
</svg>
