<svg width="14" height="14" viewBox="0 0 14 14" fill="none" xmlns="http://www.w3.org/2000/svg">
<path d="M13.8601 3.7596L13.1588 3.0583C13.0653 2.96465 12.9577 2.91797 12.8359 2.91797C12.7145 2.91797 12.6069 2.96465 12.5135 3.0583L7.00007 8.5714L1.48692 3.05845C1.39342 2.96479 1.28582 2.91812 1.16426 2.91812C1.04265 2.91812 0.93504 2.96479 0.841585 3.05845L0.14033 3.7598C0.0466783 3.85325 0 3.96086 0 4.08247C0 4.20398 0.0468257 4.31159 0.14033 4.40504L6.6774 10.9423C6.77086 11.0358 6.87851 11.0825 7.00007 11.0825C7.12163 11.0825 7.22909 11.0358 7.3225 10.9423L13.8601 4.40504C13.9536 4.31154 14 4.20393 14 4.08247C14 3.96086 13.9536 3.85325 13.8601 3.7596Z" fill="white"/>
</svg>
